<svg xmlns="http://www.w3.org/2000/svg" xmlns:xlink="http://www.w3.org/1999/xlink" width="500" zoomAndPan="magnify" viewBox="0 0 375 374.999991" height="500" preserveAspectRatio="xMidYMid meet" version="1.0"><defs><clipPath id="512db6033c"><path d="M 80.171875 77.210938 L 294.828125 77.210938 L 294.828125 291.867188 L 80.171875 291.867188 Z M 80.171875 77.210938 " clip-rule="nonzero"/></clipPath><clipPath id="71971e42dc"><path d="M 187.5 77.210938 C 128.226562 77.210938 80.171875 125.265625 80.171875 184.539062 C 80.171875 243.8125 128.226562 291.867188 187.5 291.867188 C 246.773438 291.867188 294.828125 243.8125 294.828125 184.539062 C 294.828125 125.265625 246.773438 77.210938 187.5 77.210938 Z M 187.5 77.210938 " clip-rule="nonzero"/></clipPath><clipPath id="1d96203ebb"><path d="M 180 112.5 L 183 112.5 L 183 115 L 180 115 Z M 180 112.5 " clip-rule="nonzero"/></clipPath><clipPath id="c65bc3e6e9"><path d="M 139 118 L 238 118 L 238 262.5 L 139 262.5 Z M 139 118 " clip-rule="nonzero"/></clipPath><clipPath id="e7e353e1fc"><path d="M 122.625 181 L 133 181 L 133 190 L 122.625 190 Z M 122.625 181 " clip-rule="nonzero"/></clipPath></defs><g clip-path="url(#512db6033c)"><g clip-path="url(#71971e42dc)"><path fill="#000000" d="M 80.171875 77.210938 L 294.828125 77.210938 L 294.828125 291.867188 L 80.171875 291.867188 Z M 80.171875 77.210938 " fill-opacity="1" fill-rule="nonzero"/></g></g><g clip-path="url(#1d96203ebb)"><path fill="#ffffff" d="M 180.804688 112.792969 C 180.007812 113.222656 180.007812 114.507812 180.789062 114.796875 C 181.539062 115.089844 182.609375 114.398438 182.609375 113.617188 C 182.609375 113.238281 181.890625 112.53125 181.523438 112.546875 C 181.371094 112.546875 181.035156 112.65625 180.804688 112.792969 Z M 180.804688 112.792969 " fill-opacity="1" fill-rule="nonzero"/></g><path fill="#ffffff" d="M 201.476562 113.773438 C 200.238281 114.109375 199.640625 114.765625 199.640625 115.808594 C 199.640625 116.953125 201.0625 117.996094 202.65625 117.996094 C 203.710938 118.011719 204.429688 117.71875 204.980469 117.046875 C 205.792969 116.082031 205.394531 114.796875 204.078125 114.167969 C 203.359375 113.800781 202.058594 113.617188 201.476562 113.773438 Z M 203.375 114.339844 C 204.140625 114.734375 203.3125 115.945312 202.105469 116.203125 C 200.972656 116.449219 200.113281 116.082031 200.113281 115.347656 C 200.113281 114.367188 202.179688 113.726562 203.375 114.339844 Z M 203.375 114.339844 " fill-opacity="1" fill-rule="nonzero"/><path fill="#ffffff" d="M 171.394531 114.0625 C 170.324219 114.539062 169.863281 116.203125 170.566406 117.109375 C 171.546875 118.347656 173.765625 118.300781 174.578125 117.015625 C 175.144531 116.082031 174.5625 114.675781 173.382812 114.125 C 172.601562 113.773438 172.097656 113.757812 171.394531 114.0625 Z M 173 116.25 C 173.535156 116.816406 173.535156 116.9375 173.125 117.351562 C 172.742188 117.75 172.160156 117.765625 171.515625 117.445312 C 170.597656 116.96875 170.507812 116.066406 171.316406 115.777344 C 171.945312 115.5625 172.496094 115.714844 173 116.25 Z M 173 116.25 " fill-opacity="1" fill-rule="nonzero"/><path fill="#ffffff" d="M 214.085938 114.550781 C 213.824219 114.859375 214.085938 115.164062 214.46875 115.011719 C 214.789062 114.890625 214.804688 114.722656 214.511719 114.492188 C 214.34375 114.351562 214.253906 114.367188 214.085938 114.550781 Z M 214.085938 114.550781 " fill-opacity="1" fill-rule="nonzero"/><path fill="#ffffff" d="M 224.734375 114.875 C 222.851562 115.394531 221.398438 116.464844 220.757812 117.765625 C 220.589844 118.117188 220.417969 118.867188 220.390625 119.449219 C 220.328125 120.382812 220.390625 120.597656 220.863281 121.53125 C 221.277344 122.324219 221.613281 122.722656 222.285156 123.183594 C 223.542969 124.070312 224.582031 124.328125 226.464844 124.238281 C 227.792969 124.175781 228.175781 124.085938 229.171875 123.625 C 231.757812 122.433594 232.554688 120.304688 231.375 117.796875 C 230.273438 115.457031 227.289062 114.140625 224.734375 114.875 Z M 226.785156 116.679688 C 229.554688 117.597656 231.328125 120.488281 230.058594 122.019531 C 228.773438 123.550781 225.605469 123.917969 223.433594 122.785156 C 222.027344 122.066406 221.445312 121.238281 221.351562 119.878906 C 221.230469 117.980469 222.195312 116.832031 224.289062 116.34375 C 224.75 116.234375 225.945312 116.402344 226.785156 116.679688 Z M 226.785156 116.679688 " fill-opacity="1" fill-rule="nonzero"/><path fill="#ffffff" d="M 167.0625 115.074219 C 166.773438 115.164062 166.804688 115.699219 167.109375 115.824219 C 167.445312 115.945312 167.660156 115.808594 167.660156 115.441406 C 167.660156 115.117188 167.386719 114.949219 167.0625 115.074219 Z M 167.0625 115.074219 " fill-opacity="1" fill-rule="nonzero"/><path fill="#ffffff" d="M 214.46875 117.445312 C 214.34375 117.75 214.683594 118.011719 215.003906 117.886719 C 215.308594 117.765625 215.203125 117.292969 214.851562 117.230469 C 214.695312 117.199219 214.527344 117.292969 214.46875 117.445312 Z M 214.46875 117.445312 " fill-opacity="1" fill-rule="nonzero"/><path fill="#ffffff" d="M 153.554688 118.117188 C 153.585938 118.269531 153.707031 118.410156 153.84375 118.410156 C 153.980469 118.410156 154.105469 118.269531 154.136719 118.117188 C 154.164062 117.917969 154.089844 117.84375 153.84375 117.84375 C 153.597656 117.84375 153.523438 117.917969 153.554688 118.117188 Z M 153.554688 118.117188 " fill-opacity="1" fill-rule="nonzero"/><path fill="#ffffff" d="M 149.207031 118.53125 C 148.78125 119.003906 148.75 119.9375 149.160156 120.304688 C 149.894531 120.980469 151.273438 120.320312 151.273438 119.296875 C 151.273438 118.253906 149.941406 117.765625 149.207031 118.53125 Z M 149.207031 118.53125 " fill-opacity="1" fill-rule="nonzero"/><g clip-path="url(#c65bc3e6e9)"><path fill="#ffffff" d="M 183.484375 118.269531 C 173.476562 119.144531 164.675781 121.988281 157.746094 126.625 C 155.054688 128.414062 153.859375 129.394531 151.378906 131.8125 C 145.871094 137.183594 142.03125 143.65625 140.257812 150.570312 C 139.1875 154.75 139.230469 153.554688 139.214844 183.53125 C 139.214844 207.796875 139.246094 210.675781 139.476562 210.996094 C 139.75 211.394531 140.457031 211.46875 140.867188 211.148438 C 141.113281 210.964844 141.144531 209.40625 141.191406 192.3125 C 141.234375 172.453125 141.207031 173.050781 141.96875 172.574219 C 142.691406 172.128906 143.929688 173.109375 144.648438 174.671875 C 145.519531 176.554688 145.734375 177.609375 145.71875 180.011719 C 145.71875 182.183594 145.71875 182.199219 144.921875 184.507812 C 144.144531 186.835938 144.144531 186.851562 144.128906 189.007812 C 144.128906 190.890625 144.171875 191.347656 144.511719 192.359375 C 145 193.859375 145.8125 195.097656 147.308594 196.675781 C 147.96875 197.363281 148.625 198.1875 148.78125 198.496094 C 149.191406 199.289062 149.332031 202.550781 149.332031 211.867188 L 149.34375 219.535156 L 148.808594 219.535156 C 148.074219 219.535156 146.929688 220.160156 146.5 220.804688 C 145.535156 222.257812 146.652344 223.878906 148.625 223.878906 L 149.390625 223.878906 L 149.285156 229.019531 C 149.191406 234.023438 149.191406 234.160156 149.5 234.484375 C 149.882812 234.851562 150.292969 234.894531 150.691406 234.605469 C 150.9375 234.421875 150.984375 233.78125 151.121094 228.210938 C 151.210938 224.8125 151.273438 221.8125 151.257812 221.554688 C 151.257812 221.277344 151.210938 216.257812 151.183594 210.367188 C 151.121094 200.757812 151.136719 199.640625 151.367188 199.457031 C 151.503906 199.335938 152.175781 199.214844 152.878906 199.167969 L 154.148438 199.089844 L 154.699219 199.640625 C 155.433594 200.375 155.605469 201.097656 155.605469 203.269531 L 155.617188 205.074219 L 154.839844 205.074219 C 153.875 205.074219 152.574219 205.703125 152.191406 206.34375 C 151.242188 207.964844 152.621094 209.957031 154.992188 210.351562 L 155.695312 210.476562 L 155.773438 220.191406 L 155.847656 229.910156 L 156.246094 229.953125 C 157.058594 230.078125 157.058594 230.167969 157.058594 219.792969 L 157.074219 210.140625 L 157.714844 209.847656 C 159.03125 209.234375 159.414062 207.660156 158.480469 206.621094 C 158.203125 206.296875 157.777344 205.914062 157.515625 205.761719 L 157.058594 205.488281 L 157.058594 203.789062 C 157.058594 202.042969 157.257812 201.171875 157.761719 200.757812 C 157.960938 200.589844 158.050781 200.652344 158.3125 201.171875 C 158.785156 202.105469 159.414062 204.203125 159.78125 206.113281 C 160.101562 207.78125 160.117188 208.289062 160.117188 226.097656 C 160.117188 246.1875 160.054688 245.085938 161.050781 245.085938 C 162.089844 245.085938 162.015625 246.355469 162.089844 226.207031 C 162.136719 213.214844 162.214844 207.628906 162.335938 206.972656 C 162.613281 205.640625 163.085938 204.445312 163.683594 203.636719 L 164.203125 202.917969 L 164.25 204.445312 C 164.324219 207.84375 164.785156 216.152344 164.9375 217.132812 C 165.03125 217.714844 165.410156 219.335938 165.808594 220.742188 C 167.140625 225.578125 167.15625 225.824219 167.277344 245.546875 C 167.371094 259.347656 167.429688 262.027344 167.613281 262.210938 C 167.9375 262.53125 168.578125 262.484375 168.945312 262.117188 C 169.269531 261.796875 169.269531 261.582031 169.269531 247.0625 C 169.269531 234.699219 169.3125 231.957031 169.511719 230.136719 C 169.820312 227.582031 170.109375 226.113281 170.597656 224.675781 L 170.949219 223.632812 L 171.042969 229.894531 C 171.105469 235.492188 171.148438 236.152344 171.378906 236.304688 C 171.578125 236.425781 171.714844 236.410156 171.898438 236.257812 C 172.128906 236.074219 172.160156 235.15625 172.160156 228.085938 C 172.160156 220.375 172.175781 220.101562 172.496094 219.441406 C 172.96875 218.449219 173.964844 217.375 174.285156 217.5 C 174.625 217.621094 175.296875 219.734375 175.511719 221.308594 C 175.601562 222.011719 175.695312 227.03125 175.710938 233.199219 C 175.753906 245.515625 175.753906 245.515625 176.199219 245.652344 C 176.398438 245.714844 176.644531 245.652344 176.828125 245.484375 C 177.132812 245.210938 177.148438 244.859375 177.148438 234.527344 C 177.148438 228.011719 177.210938 223.265625 177.316406 222.320312 C 177.683594 219.058594 178.679688 216.199219 179.808594 215.203125 C 180.515625 214.589844 180.957031 214.621094 181.371094 215.339844 C 181.644531 215.800781 181.707031 216.382812 181.84375 219.273438 C 181.9375 221.492188 182.058594 222.714844 182.183594 222.792969 C 182.519531 223.007812 183.070312 222.914062 183.238281 222.609375 C 183.34375 222.425781 183.40625 220.972656 183.40625 219.042969 C 183.40625 216.105469 183.4375 215.832031 183.667969 216.015625 C 184.324219 216.566406 185.546875 219.703125 186.296875 222.792969 C 187.429688 227.414062 187.582031 230.199219 187.582031 246.832031 C 187.582031 255.628906 187.644531 260.160156 187.75 260.359375 C 187.964844 260.769531 188.792969 260.785156 189.023438 260.371094 C 189.113281 260.1875 189.191406 253.992188 189.234375 243.785156 L 189.28125 227.492188 L 189.710938 225.882812 C 190.886719 221.476562 192.695312 216.796875 193.445312 216.167969 C 193.671875 215.984375 193.734375 215.984375 193.855469 216.183594 C 193.949219 216.304688 194.011719 220.589844 194.011719 226.144531 C 194.011719 234.359375 194.039062 235.921875 194.238281 236.183594 C 194.421875 236.425781 194.53125 236.457031 194.757812 236.320312 C 195.035156 236.152344 195.066406 235.585938 195.140625 226.832031 L 195.21875 217.53125 L 195.585938 218.648438 C 196.765625 222.242188 197.054688 227.292969 197.054688 243.480469 C 197.070312 256.332031 197.039062 256.011719 197.941406 256.011719 C 198.769531 256.011719 198.738281 256.5 198.84375 241.8125 C 198.9375 228.425781 198.9375 228.101562 199.289062 226.527344 C 199.703125 224.691406 200.589844 221.980469 201.214844 220.679688 L 201.644531 219.777344 L 201.675781 229.527344 C 201.722656 239.011719 201.738281 239.257812 202.042969 239.546875 C 202.347656 239.824219 202.378906 239.824219 202.6875 239.546875 C 202.992188 239.257812 203.007812 239.011719 203.054688 228.46875 L 203.082031 217.699219 L 203.757812 218.816406 C 205.441406 221.613281 207.613281 228.042969 208.378906 232.507812 C 208.789062 234.851562 208.945312 238.292969 208.945312 244.796875 C 208.945312 250.074219 208.988281 250.886719 209.203125 251.101562 C 209.523438 251.421875 210.136719 251.421875 210.398438 251.117188 C 210.671875 250.777344 210.519531 236.089844 210.167969 229.171875 C 209.890625 223.710938 209.96875 222.304688 210.640625 220.222656 C 211.085938 218.859375 211.238281 217.390625 211.515625 211.269531 C 211.683594 207.507812 211.957031 205.378906 212.507812 203.558594 C 212.9375 202.105469 213.121094 201.875 213.394531 202.398438 C 213.855469 203.285156 213.917969 204.539062 213.933594 215.769531 C 213.945312 222.136719 213.960938 227.519531 213.945312 227.75 C 213.933594 228.148438 213.871094 228.179688 213.273438 228.164062 C 212.492188 228.132812 212.171875 228.484375 212.171875 229.28125 C 212.171875 229.648438 212.265625 229.863281 212.476562 229.984375 C 212.875 230.183594 213.566406 230.199219 213.6875 229.984375 C 213.992188 229.480469 214.101562 230.046875 214.101562 232.386719 C 214.101562 234.726562 214.117188 234.972656 214.390625 235.109375 C 214.605469 235.234375 214.773438 235.21875 214.941406 235.078125 C 215.171875 234.910156 215.203125 233.304688 215.261719 219.382812 C 215.339844 202.703125 215.339844 202.75 216.179688 200.773438 C 216.6875 199.628906 217.160156 199.214844 218.0625 199.214844 C 218.707031 199.214844 218.84375 199.289062 219.332031 199.839844 C 220.449219 201.140625 220.96875 203.484375 221.109375 207.9375 L 221.214844 210.859375 L 220.558594 211.5625 C 219.667969 212.527344 219.410156 213.414062 219.761719 214.164062 C 219.914062 214.484375 220.28125 214.882812 220.574219 215.050781 L 221.109375 215.371094 L 221.214844 222.960938 C 221.277344 227.140625 221.324219 232.617188 221.324219 235.140625 C 221.324219 238.492188 221.367188 239.777344 221.519531 239.914062 C 221.84375 240.238281 222.425781 240.128906 222.699219 239.714844 C 222.929688 239.347656 222.945312 238.1875 222.867188 227.507812 L 222.777344 215.695312 L 223.371094 215.585938 C 224.828125 215.324219 226.082031 214.347656 226.464844 213.183594 C 227.015625 211.53125 225.804688 210.214844 223.726562 210.214844 L 222.730469 210.214844 L 222.835938 208.011719 C 223.035156 203.941406 223.371094 202.058594 223.894531 201.921875 C 224.105469 201.859375 224.214844 201.617188 224.304688 201.003906 L 224.429688 200.179688 L 224.613281 201.386719 C 224.78125 202.582031 224.78125 202.59375 225.253906 202.59375 L 225.746094 202.59375 L 225.820312 199.855469 C 225.914062 197.316406 225.945312 197.070312 226.296875 196.582031 C 226.722656 195.984375 226.785156 196.03125 227.199219 197.132812 C 227.472656 197.882812 227.503906 198.816406 227.582031 212.21875 C 227.65625 225.59375 227.6875 226.511719 227.949219 226.679688 C 228.160156 226.800781 228.300781 226.800781 228.515625 226.679688 C 228.773438 226.511719 228.804688 225.515625 228.882812 210.84375 C 228.941406 199.136719 229.019531 195.066406 229.15625 194.640625 C 229.265625 194.316406 229.828125 193.628906 230.441406 193.03125 C 231.070312 192.4375 231.710938 191.640625 231.941406 191.179688 C 232.292969 190.460938 232.324219 190.1875 232.324219 188.457031 C 232.308594 186.867188 232.21875 186.132812 231.773438 184.28125 C 231.3125 182.277344 231.253906 181.832031 231.328125 180.332031 C 231.40625 178.359375 231.558594 177.960938 233.273438 174.761719 C 233.914062 173.539062 234.726562 171.855469 235.0625 171.015625 C 235.398438 170.1875 235.734375 169.421875 235.8125 169.347656 C 235.890625 169.253906 235.949219 176.492188 235.949219 185.414062 C 235.933594 197.820312 235.980469 201.691406 236.132812 201.832031 C 236.457031 202.167969 236.898438 202.058594 237.066406 201.617188 C 237.296875 201.035156 237.28125 159.554688 237.066406 157.074219 C 236.273438 148.414062 232.324219 140.335938 225.46875 133.34375 C 224.167969 131.996094 222.4375 130.375 221.660156 129.730469 C 220.863281 129.089844 220.25 128.476562 220.3125 128.398438 C 220.359375 128.308594 220.328125 128.292969 220.222656 128.355469 C 220.128906 128.414062 219.667969 128.1875 219.195312 127.847656 C 212.417969 122.90625 202.761719 119.386719 193.335938 118.410156 C 191.210938 118.195312 185.394531 118.101562 183.484375 118.269531 Z M 190.796875 119.296875 C 195.96875 119.601562 200.039062 120.367188 204.707031 121.925781 C 210.871094 123.992188 216.179688 127.238281 218.597656 130.449219 C 219.824219 132.058594 220.679688 134.445312 220.679688 136.1875 C 220.679688 137.640625 220.25 138.40625 219.425781 138.40625 L 218.996094 138.40625 L 219.472656 138.726562 C 220.417969 139.355469 221.183594 139.019531 221.71875 137.71875 C 222.042969 136.953125 222.363281 136.953125 223.234375 137.703125 C 224.0625 138.421875 224.535156 139.339844 225.023438 141.175781 C 225.222656 141.957031 225.421875 142.554688 225.453125 142.523438 C 225.5625 142.414062 225.164062 140.195312 224.917969 139.476562 C 224.566406 138.5 224.65625 138.4375 225.316406 139.171875 C 226.140625 140.058594 227 141.742188 227.425781 143.226562 C 227.792969 144.511719 228.023438 147.082031 227.839844 147.785156 L 227.734375 148.230469 L 226.664062 147.296875 C 224.550781 145.445312 223.785156 144.589844 222.761719 142.859375 C 222.210938 141.910156 221.691406 141.128906 221.613281 141.128906 C 221.429688 141.128906 221.628906 141.574219 222.410156 142.90625 C 222.808594 143.5625 223.417969 144.695312 223.769531 145.398438 C 224.261719 146.378906 224.6875 146.945312 225.578125 147.800781 C 226.875 149.042969 227.105469 149.546875 227.105469 151.089844 C 227.089844 151.980469 226.753906 153.921875 226.570312 154.105469 C 226.449219 154.226562 226.371094 154 226.066406 152.46875 C 225.929688 151.765625 225.621094 150.570312 225.378906 149.804688 L 224.933594 148.445312 L 224.886719 149.332031 C 224.855469 149.820312 224.902344 151.246094 225.011719 152.484375 C 225.285156 156.261719 225.253906 156.675781 224.613281 158.054688 C 223.863281 159.613281 223.585938 161.238281 223.570312 164.050781 C 223.570312 166.027344 223.679688 166.945312 224.367188 171.121094 C 224.796875 173.753906 225.300781 176.90625 225.5 178.082031 C 225.820312 180.117188 225.914062 180.394531 226.875 182.351562 C 227.441406 183.5 227.976562 184.769531 228.070312 185.152344 C 228.253906 185.964844 228.53125 190.460938 228.390625 190.460938 C 228.34375 190.460938 228.101562 189.957031 227.871094 189.34375 C 227.488281 188.394531 227.425781 187.953125 227.414062 186.484375 L 227.382812 184.753906 L 227.242188 186.359375 C 227.074219 188.257812 227.136719 188.839844 227.6875 190.492188 C 228.054688 191.578125 228.085938 191.761719 227.886719 192.175781 C 227.765625 192.421875 227.367188 192.789062 226.984375 193 L 226.3125 193.382812 L 226.3125 192.054688 C 226.3125 190.722656 226.296875 190.707031 225.179688 188.457031 C 224.566406 187.21875 223.953125 185.75 223.832031 185.183594 C 223.695312 184.617188 223.554688 184.128906 223.511719 184.082031 C 223.480469 184.050781 223.386719 184.496094 223.328125 185.089844 C 223.175781 186.515625 223.34375 189.070312 223.738281 191.226562 C 224.121094 193.339844 224.121094 193.8125 223.785156 194.300781 C 223.28125 195.019531 222.652344 195.128906 218.371094 195.296875 C 216.152344 195.375 213.945312 195.511719 213.488281 195.585938 C 212.570312 195.726562 212.523438 195.695312 212.890625 195.160156 C 213.257812 194.640625 212.984375 194.699219 211.238281 195.527344 C 209.203125 196.492188 207.796875 197.882812 206.558594 200.179688 C 206.082031 201.066406 205.257812 202.425781 204.734375 203.207031 C 203.589844 204.921875 203.222656 205.761719 202.992188 207.15625 C 202.808594 208.347656 203.039062 210.15625 203.632812 212.3125 C 203.800781 212.96875 204 214.027344 204.046875 214.636719 L 204.15625 215.769531 L 203.648438 215.203125 C 203.390625 214.898438 203.039062 214.636719 202.882812 214.636719 C 202.699219 214.636719 202.609375 214.515625 202.625 214.285156 C 202.625 213.996094 202.578125 213.964844 202.410156 214.101562 C 201.90625 214.53125 201.445312 213.398438 201.386719 211.59375 C 201.371094 210.902344 201.339844 210.859375 201.246094 211.269531 C 201.171875 211.636719 201.09375 211.378906 200.957031 210.140625 C 200.847656 209.25 200.726562 208.289062 200.695312 207.964844 C 200.652344 207.660156 200.652344 208.625 200.679688 210.109375 C 200.710938 211.578125 200.710938 212.785156 200.679688 212.785156 C 200.636719 212.785156 200.527344 212.554688 200.453125 212.265625 C 200.3125 211.820312 200.296875 211.867188 200.390625 212.554688 C 200.4375 213 200.621094 213.828125 200.789062 214.394531 C 201.09375 215.496094 201.171875 216.488281 200.941406 216.488281 C 200.878906 216.488281 200.726562 216.152344 200.621094 215.722656 C 200.511719 215.3125 200.285156 214.773438 200.101562 214.5625 L 199.777344 214.164062 L 199.871094 214.882812 C 199.929688 215.28125 200.007812 215.738281 200.054688 215.890625 C 200.101562 216.046875 200.070312 216.167969 199.992188 216.167969 C 199.550781 216.167969 198.90625 212.925781 199.042969 211.285156 C 199.105469 210.492188 199.089844 210.292969 198.984375 210.613281 C 198.90625 210.875 198.828125 211.625 198.8125 212.265625 C 198.785156 213.277344 198.753906 213.398438 198.570312 213.152344 C 198.445312 213 198.355469 212.664062 198.355469 212.417969 C 198.355469 212.160156 198.277344 212.003906 198.1875 212.066406 C 198.09375 212.128906 197.835938 211.792969 197.621094 211.316406 C 197.023438 210.0625 197.332031 211.058594 197.972656 212.511719 C 198.386719 213.445312 198.507812 213.933594 198.476562 214.4375 C 198.417969 215.171875 198.339844 215.097656 197.957031 213.84375 L 197.710938 213.03125 L 197.804688 213.75 C 197.925781 214.957031 197.605469 214.164062 197.238281 212.359375 C 196.886719 210.644531 196.792969 209.527344 197.070312 210.140625 C 197.160156 210.367188 197.207031 210.398438 197.207031 210.214844 C 197.222656 210.078125 197.148438 209.894531 197.070312 209.816406 C 196.976562 209.726562 196.839844 209.375 196.75 209.023438 C 196.625 208.515625 196.609375 208.855469 196.65625 210.460938 C 196.703125 211.609375 196.78125 213.09375 196.839844 213.75 L 196.933594 214.957031 L 196.410156 213.917969 C 196.105469 213.277344 195.859375 212.464844 195.785156 211.820312 C 195.707031 211.257812 195.648438 210.964844 195.632812 211.179688 C 195.617188 211.410156 195.539062 211.699219 195.449219 211.820312 C 195.324219 212.003906 195.308594 211.714844 195.386719 210.859375 C 195.507812 209.449219 195.371094 209.449219 195.066406 210.890625 L 194.835938 211.914062 L 194.820312 210.382812 C 194.789062 208.640625 194.605469 207.890625 194.4375 208.761719 C 194.378906 209.050781 194.332031 209.601562 194.316406 209.957031 C 194.316406 210.566406 194.300781 210.597656 194.148438 210.214844 C 194.054688 210 193.886719 209.128906 193.765625 208.289062 C 193.640625 207.460938 193.519531 206.695312 193.503906 206.605469 C 193.503906 206.511719 193.398438 207.246094 193.273438 208.210938 C 193.0625 210.0625 192.785156 211.699219 192.738281 211.425781 C 192.722656 211.332031 192.679688 210.660156 192.648438 209.894531 C 192.570312 208.488281 191.699219 205.042969 191.195312 204.15625 C 191.058594 203.910156 190.980469 203.867188 191.042969 204.035156 C 191.332031 204.953125 191.621094 207.003906 191.746094 209.160156 C 191.835938 210.492188 191.976562 211.792969 192.066406 212.050781 C 192.28125 212.601562 192.25 212.679688 191.898438 212.402344 C 191.621094 212.21875 191.253906 210.964844 191.027344 209.574219 C 190.859375 208.457031 190.6875 208.347656 190.6875 209.375 C 190.6875 209.878906 190.597656 210.964844 190.476562 211.792969 L 190.246094 213.277344 L 189.910156 211.851562 C 189.710938 211.085938 189.511719 210.03125 189.433594 209.511719 C 189.25 207.964844 189.160156 208.640625 189.328125 210.351562 C 189.417969 211.316406 189.617188 212.234375 189.816406 212.679688 C 190 213.09375 190.152344 213.519531 190.152344 213.628906 C 190.152344 213.78125 190.199219 213.765625 190.320312 213.597656 C 190.429688 213.429688 190.476562 213.671875 190.460938 214.394531 L 190.460938 215.449219 L 190.246094 214.882812 C 190.125 214.578125 189.863281 213.78125 189.648438 213.121094 L 189.28125 211.914062 L 188.960938 213.398438 C 188.777344 214.210938 188.578125 214.882812 188.5 214.882812 C 188.441406 214.882812 188.179688 214.5625 187.933594 214.179688 C 187.183594 212.953125 187.09375 212.847656 187.355469 213.519531 C 187.875 214.789062 188.058594 215.539062 187.949219 216.046875 L 187.859375 216.535156 L 187.476562 215.832031 C 187 214.914062 186.328125 212.769531 186.160156 211.578125 C 186.023438 210.644531 186.023438 210.628906 185.992188 211.347656 C 185.960938 212.617188 186.253906 213.828125 186.941406 215.25 C 187.613281 216.625 187.613281 216.625 187.492188 217.957031 C 187.355469 219.59375 187.15625 219.257812 186.941406 216.992188 C 186.832031 215.878906 186.695312 215.265625 186.359375 214.621094 C 185.871094 213.644531 185.625 213.503906 185.746094 214.285156 L 185.839844 214.804688 L 185.59375 214.394531 C 185.441406 214.164062 185.335938 213.566406 185.320312 212.953125 L 185.304688 211.914062 L 185.011719 212.785156 C 184.769531 213.582031 184.722656 213.628906 184.554688 213.320312 C 184.109375 212.480469 183.820312 209.972656 183.820312 206.679688 C 183.820312 204.875 183.863281 203.070312 183.925781 202.671875 L 184.035156 201.953125 L 183.742188 202.59375 C 183.3125 203.527344 182.75 206.097656 182.640625 207.570312 C 182.535156 209.128906 182.304688 208.761719 182.167969 206.757812 C 182.074219 205.519531 182.289062 204.445312 182.871094 203.007812 C 182.933594 202.886719 182.902344 202.824219 182.808594 202.886719 C 182.394531 203.144531 181.753906 205.195312 181.660156 206.574219 C 181.601562 207.339844 181.617188 207.964844 181.675781 207.964844 C 181.816406 207.964844 181.84375 209.757812 181.707031 210.125 C 181.507812 210.628906 181.277344 210.382812 181.386719 209.789062 C 181.476562 209.25 181.460938 209.207031 181.265625 209.464844 C 181.140625 209.617188 180.988281 209.742188 180.941406 209.742188 C 180.882812 209.742188 180.835938 209.617188 180.835938 209.464844 C 180.820312 209.207031 180.804688 209.207031 180.589844 209.496094 C 180.359375 209.789062 180.347656 209.789062 180.347656 209.328125 C 180.347656 208.960938 180.316406 208.914062 180.191406 209.097656 C 180.101562 209.234375 180.039062 210.015625 180.039062 210.84375 C 180.039062 212.3125 180.023438 212.359375 179.535156 212.816406 C 179.242188 213.078125 179 213.261719 178.984375 213.246094 C 178.96875 213.214844 179 212.800781 179.058594 212.3125 C 179.199219 211.300781 179.089844 209.589844 178.890625 209.589844 C 178.816406 209.574219 178.707031 209.941406 178.648438 210.382812 C 178.539062 211.210938 178.265625 211.5 178.265625 210.78125 C 178.265625 210.214844 178.003906 210.292969 177.867188 210.902344 L 177.746094 211.425781 L 177.636719 210.859375 C 177.515625 210.277344 177.683594 206.605469 177.867188 205.886719 C 177.914062 205.671875 177.789062 205.929688 177.578125 206.464844 C 177.164062 207.539062 176.566406 208.457031 176.304688 208.457031 C 176.183594 208.457031 176.167969 208.132812 176.230469 207.539062 C 176.289062 206.941406 176.277344 206.726562 176.183594 206.925781 C 176.105469 207.109375 176.03125 207.613281 176.03125 208.058594 C 176.015625 208.855469 176 208.882812 175.160156 209.433594 L 174.285156 210 L 173.691406 207.828125 C 173.125 205.761719 173.09375 205.5625 173.167969 203.878906 C 173.214844 202.765625 173.398438 201.464844 173.675781 200.375 C 174.578125 196.660156 174.546875 195.632812 173.492188 194.457031 L 172.910156 193.8125 L 173.367188 192.847656 L 173.84375 191.882812 L 173.078125 191.164062 C 172.664062 190.769531 172.328125 190.414062 172.328125 190.371094 C 172.328125 190.339844 172.511719 190.292969 172.757812 190.292969 C 173.261719 190.277344 175.25 189.851562 174.914062 189.835938 C 174.792969 189.820312 174.058594 189.894531 173.292969 190.003906 C 172.359375 190.125 171.808594 190.140625 171.609375 190.035156 C 171.378906 189.894531 171.546875 189.742188 172.695312 189.101562 C 177.484375 186.421875 180.421875 181.710938 180.988281 175.832031 C 181.125 174.257812 181.019531 171.886719 180.742188 170.769531 C 180.574219 170.097656 181.125 170.066406 181.675781 170.707031 C 181.9375 171.015625 181.707031 170.617188 181.1875 169.820312 C 179.105469 166.667969 176.289062 164.449219 174.378906 164.433594 C 173.75 164.433594 173.550781 164.511719 173.140625 164.925781 C 172.234375 165.828125 171.839844 168.074219 171.839844 172.300781 C 171.839844 174.378906 171.792969 174.824219 171.578125 175.070312 C 171.242188 175.4375 171.058594 175.4375 170.691406 175.097656 C 170.414062 174.839844 170.382812 174.457031 170.382812 169.589844 C 170.382812 163.484375 170.246094 161.832031 169.636719 160.699219 C 168.902344 159.371094 167.691406 158.925781 167.324219 159.875 C 167.246094 160.105469 167.1875 163.210938 167.1875 167.082031 C 167.1875 171.121094 167.109375 174.058594 167.019531 174.304688 C 166.851562 174.746094 166.269531 174.871094 165.933594 174.519531 C 165.777344 174.378906 165.734375 172.621094 165.734375 167.570312 C 165.734375 163.851562 165.6875 160.65625 165.625 160.457031 C 165.441406 159.765625 164.96875 160.042969 163.941406 161.421875 C 163.40625 162.15625 162.734375 163.242188 162.429688 163.835938 C 161.402344 165.84375 161.355469 166.210938 161.25 173.660156 C 161.15625 179.828125 161.128906 180.394531 160.867188 180.5625 C 160.667969 180.699219 160.515625 180.699219 160.316406 180.5625 C 160.054688 180.394531 160.027344 179.828125 159.917969 173.613281 C 159.796875 165.78125 159.765625 165.535156 158.328125 163.410156 C 156.980469 161.390625 155.40625 160.257812 153.9375 160.257812 C 153.019531 160.257812 152.636719 160.441406 152.328125 161.039062 C 152.128906 161.433594 152.128906 161.542969 152.3125 161.816406 C 152.453125 162 152.773438 162.183594 153.046875 162.246094 C 153.324219 162.292969 153.8125 162.597656 154.121094 162.902344 C 154.6875 163.46875 154.6875 163.484375 154.609375 164.632812 C 154.546875 165.628906 154.363281 166.222656 153.324219 168.6875 C 151.195312 173.707031 150.816406 175.542969 150.753906 180.652344 C 150.722656 183.914062 150.738281 184.1875 151.089844 185.242188 C 151.855469 187.507812 153.0625 189.296875 154.578125 190.429688 C 155.957031 191.441406 156.09375 191.242188 154.855469 190.019531 C 153.613281 188.808594 152.605469 186.988281 152.144531 185.152344 C 151.855469 184.003906 151.792969 181.664062 152.054688 180.898438 C 152.207031 180.425781 152.222656 180.425781 152.328125 180.792969 C 152.542969 181.496094 153.675781 183.746094 154.289062 184.648438 C 155.789062 186.898438 158.375 188.992188 160.882812 189.957031 C 162.167969 190.445312 164.476562 190.9375 165.519531 190.9375 C 165.839844 190.9375 166.054688 191.027344 166.054688 191.148438 C 166.054688 191.488281 165.734375 194.210938 165.640625 194.625 L 165.550781 195.007812 L 165.121094 194.59375 C 164.507812 194.027344 163.867188 193.734375 162.597656 193.445312 C 162 193.292969 161.386719 193.09375 161.265625 192.988281 C 161.050781 192.816406 161.050781 192.832031 161.234375 193.109375 C 161.355469 193.292969 161.878906 193.796875 162.414062 194.242188 C 163.515625 195.160156 163.941406 195.925781 163.558594 196.308594 C 163.285156 196.582031 162.886719 196.503906 160.699219 195.648438 C 159.886719 195.34375 158.386719 194.914062 157.378906 194.699219 C 154.882812 194.179688 153.722656 193.765625 152.605469 193.046875 C 151.535156 192.359375 150.277344 190.8125 149.453125 189.175781 L 148.933594 188.136719 L 148.964844 189.375 C 148.964844 190.246094 149.054688 190.722656 149.253906 191.027344 C 149.683594 191.6875 151.167969 193.0625 152.847656 194.363281 C 153.660156 195.007812 154.257812 195.542969 154.164062 195.574219 C 153.875 195.679688 151.242188 194.792969 150.234375 194.257812 C 148.902344 193.566406 147.480469 192.097656 146.699219 190.613281 C 145.398438 188.136719 145.765625 185.792969 148.550781 178.800781 C 149.558594 176.261719 149.941406 174.730469 150.15625 172.375 C 150.339844 170.28125 150.25 168.488281 149.882812 166.777344 C 149.558594 165.335938 149.332031 164.800781 148.335938 163.164062 C 147.875 162.414062 147.339844 161.34375 147.140625 160.761719 L 146.773438 159.691406 L 146.867188 160.546875 C 146.914062 161.023438 147.234375 162.214844 147.585938 163.195312 C 148.382812 165.414062 148.703125 166.851562 148.703125 168.257812 C 148.703125 169.269531 148.320312 173.460938 148.105469 174.714844 L 148.015625 175.28125 L 147.890625 174.824219 C 147.816406 174.578125 147.679688 173.203125 147.585938 171.761719 C 147.386719 168.765625 147.203125 168.015625 146.085938 165.796875 C 144.710938 163.058594 144.527344 162.324219 144.371094 159.246094 C 144.296875 157.761719 144.203125 156.507812 144.160156 156.460938 C 143.988281 156.292969 143.851562 158.757812 143.914062 160.871094 C 143.976562 163.179688 143.882812 163.285156 143.253906 161.617188 C 142.734375 160.210938 142.535156 158.34375 142.644531 155.527344 C 142.78125 152.023438 143.164062 149.835938 144.160156 146.914062 C 144.769531 145.125 144.953125 144.804688 145.289062 145 C 145.445312 145.09375 146.070312 145.367188 146.699219 145.613281 C 148.441406 146.316406 148.335938 145.796875 148.472656 154.199219 C 148.597656 161.617188 148.609375 161.847656 149.238281 161.605469 C 149.46875 161.527344 149.5 160.699219 149.542969 154.089844 C 149.589844 145.8125 149.558594 146.011719 150.707031 145.445312 C 152.023438 144.789062 152.359375 144.40625 153.203125 142.660156 C 154.992188 138.910156 159.460938 132.867188 162.734375 129.777344 C 164.171875 128.429688 164.019531 128.492188 162.289062 129.976562 C 160.453125 131.550781 157.117188 135.394531 154.929688 138.4375 L 154.042969 139.675781 L 153.964844 138.4375 C 153.921875 137.519531 153.796875 137.015625 153.523438 136.507812 C 153.308594 136.140625 153.078125 135.835938 153.019531 135.835938 C 152.636719 135.835938 153.046875 135.222656 154.699219 133.34375 C 157.457031 130.207031 160.867188 127.28125 164.097656 125.324219 C 169.757812 121.867188 176.964844 119.769531 184.691406 119.296875 C 187.660156 119.113281 187.917969 119.113281 190.796875 119.296875 Z M 152.773438 137 C 153.492188 137.964844 153.1875 140.535156 152.238281 141.484375 C 151.640625 142.078125 151.058594 142.078125 150.476562 141.484375 C 149.390625 140.410156 149.5 138.4375 150.707031 137.183594 C 151.289062 136.570312 151.488281 136.464844 151.929688 136.507812 C 152.269531 136.539062 152.558594 136.707031 152.773438 137 Z M 229.507812 143.320312 L 230.367188 144.207031 L 230.273438 146.578125 C 230.226562 147.910156 230.089844 149.242188 229.96875 149.652344 L 229.738281 150.371094 L 229.554688 148.015625 C 229.402344 146.089844 229.277344 145.355469 228.835938 144.039062 C 228.5 143.011719 228.359375 142.414062 228.484375 142.414062 C 228.574219 142.414062 229.050781 142.828125 229.507812 143.320312 Z M 231.621094 145.90625 C 231.820312 146.808594 231.804688 147.757812 231.511719 149.117188 C 231.253906 150.355469 230.824219 151.65625 230.703125 151.535156 C 230.65625 151.488281 230.792969 150.863281 230.976562 150.113281 C 231.359375 148.703125 231.453125 146.882812 231.238281 145.628906 C 231.070312 144.726562 231.390625 144.957031 231.621094 145.90625 Z M 228.714844 150.203125 C 228.621094 151 228.515625 151.671875 228.484375 151.703125 C 228.390625 151.796875 228.40625 147.953125 228.515625 147.480469 C 228.726562 146.472656 228.898438 148.6875 228.714844 150.203125 Z M 227.414062 154.734375 C 227.6875 154.964844 227.917969 155.207031 227.917969 155.300781 C 227.917969 155.390625 227.671875 155.773438 227.367188 156.171875 L 226.832031 156.875 L 226.722656 156.035156 C 226.585938 154.855469 226.601562 154.304688 226.769531 154.304688 C 226.863281 154.304688 227.136719 154.503906 227.414062 154.734375 Z M 228.757812 156.277344 C 229.109375 157.027344 229.324219 163.453125 229.019531 163.640625 C 228.835938 163.746094 228.835938 163.824219 228.988281 163.976562 C 229.324219 164.296875 229.234375 165.734375 228.867188 166.285156 C 227.949219 167.617188 227.703125 168.351562 227.582031 169.925781 C 227.488281 171.167969 227.367188 171.71875 226.921875 172.726562 C 226.386719 173.980469 226.386719 174.011719 226.402344 176.324219 L 226.417969 178.648438 L 226.035156 176.964844 C 225.546875 174.730469 224.550781 167.832031 224.429688 165.796875 C 224.320312 163.746094 224.550781 162.734375 225.804688 159.875 C 226.664062 157.917969 228.023438 155.757812 228.390625 155.757812 C 228.46875 155.757812 228.621094 155.988281 228.757812 156.277344 Z M 231.773438 157.839844 C 232.21875 159.003906 232.339844 160.699219 232.09375 162.367188 C 231.894531 163.777344 231.039062 166.5625 230.488281 167.601562 L 230.167969 168.214844 L 230.167969 166.683594 C 230.167969 165.183594 230.167969 165.136719 230.6875 164.511719 C 231.175781 163.914062 231.070312 163.867188 230.425781 164.417969 C 230.152344 164.648438 230.136719 164.511719 230.183594 160.578125 C 230.226562 157.472656 230.289062 156.386719 230.457031 156.09375 L 230.6875 155.710938 L 231.070312 156.339844 C 231.269531 156.675781 231.589844 157.363281 231.773438 157.839844 Z M 225.667969 158.773438 C 225.667969 159.203125 224.503906 161.496094 224.414062 161.25 C 224.335938 161.007812 224.613281 159.8125 224.933594 159.019531 C 225.179688 158.46875 225.667969 158.296875 225.667969 158.773438 Z M 228.621094 170.785156 C 228.300781 171.351562 228.023438 171.824219 228.007812 171.824219 C 227.933594 171.824219 228.101562 169.789062 228.238281 168.980469 C 228.316406 168.519531 228.542969 167.800781 228.742188 167.371094 L 229.109375 166.605469 L 229.15625 168.167969 C 229.203125 169.714844 229.203125 169.757812 228.621094 170.785156 Z M 227.167969 174.929688 C 226.96875 175.679688 226.863281 175.957031 226.816406 175.710938 C 226.785156 175.496094 226.890625 174.808594 227.046875 174.179688 C 227.242188 173.429688 227.351562 173.15625 227.398438 173.402344 C 227.425781 173.613281 227.320312 174.304688 227.167969 174.929688 Z M 230.027344 185.609375 C 230.320312 186.332031 230.394531 186.835938 230.394531 188 C 230.394531 189.636719 230.089844 190.445312 230.011719 188.976562 C 230 188.519531 229.800781 187.632812 229.570312 187.003906 C 229.339844 186.390625 229.125 185.441406 229.082031 184.921875 L 229.019531 183.957031 L 229.339844 184.324219 C 229.507812 184.523438 229.828125 185.105469 230.027344 185.609375 Z M 171.699219 191.027344 C 172.816406 191.929688 172.925781 192.113281 172.648438 192.542969 C 172.511719 192.757812 172.328125 192.710938 171.410156 192.222656 C 170.171875 191.578125 169.113281 190.84375 169.113281 190.628906 C 169.113281 190.523438 169.957031 190.21875 170.460938 190.15625 C 170.539062 190.140625 171.089844 190.539062 171.699219 191.027344 Z M 168.425781 191.824219 C 168.71875 192.40625 168.945312 192.910156 168.945312 192.972656 C 168.945312 193.015625 168.519531 192.679688 167.984375 192.222656 C 167.035156 191.378906 166.835938 191.042969 167.21875 190.890625 C 167.738281 190.675781 167.9375 190.828125 168.425781 191.824219 Z M 169.390625 191.472656 C 169.496094 191.578125 170.171875 191.960938 170.90625 192.3125 C 171.640625 192.664062 172.265625 192.957031 172.296875 192.988281 C 172.34375 193 172.207031 193.460938 171.992188 193.996094 L 171.625 194.976562 L 172.25 196.214844 C 173.078125 197.867188 173.0625 198.496094 172.191406 200.789062 C 170.753906 204.476562 170.828125 203.972656 170.722656 211.992188 L 170.628906 219.136719 L 169.972656 220.496094 L 169.296875 221.875 L 169.375 218.890625 C 169.453125 215.523438 169.527344 214.882812 169.804688 214.867188 C 169.941406 214.867188 169.941406 214.835938 169.789062 214.773438 C 169.648438 214.714844 169.589844 214.222656 169.574219 213.136719 L 169.574219 211.59375 L 169.269531 212.527344 C 169.113281 213.046875 168.945312 213.488281 168.914062 213.519531 C 168.886719 213.550781 168.839844 211.269531 168.808594 208.472656 C 168.761719 204.675781 168.792969 203.144531 168.960938 202.441406 C 169.070312 201.921875 169.621094 200.574219 170.171875 199.445312 C 170.722656 198.296875 171.148438 197.363281 171.132812 197.363281 C 171.105469 197.363281 170.722656 197.988281 170.308594 198.738281 C 169.878906 199.488281 169.511719 200.085938 169.480469 200.054688 C 169.464844 200.023438 169.621094 199.550781 169.847656 199 C 170.398438 197.636719 170.476562 196.6875 170.171875 195.464844 C 169.847656 194.195312 169.847656 194.210938 170.230469 194.5625 C 170.414062 194.714844 170.554688 194.777344 170.554688 194.667969 C 170.554688 194.578125 170.476562 194.441406 170.371094 194.394531 C 170.1875 194.273438 169.558594 192.957031 169.175781 191.871094 C 168.960938 191.273438 169.070312 191.074219 169.390625 191.472656 Z M 168.152344 192.894531 C 169.175781 193.8125 169.296875 193.996094 169.679688 195.175781 C 170.214844 196.75 170.15625 197.714844 169.4375 199.519531 C 168.609375 201.601562 168.472656 202.472656 168.441406 205.71875 C 168.410156 209.878906 168.351562 210.078125 167.707031 207.964844 C 167.109375 206.054688 166.972656 205.179688 166.636719 201.140625 C 166.207031 196.015625 166.160156 195.082031 166.375 194.074219 C 166.605469 192.925781 166.878906 191.898438 166.972656 191.898438 C 167.019531 191.898438 167.539062 192.359375 168.152344 192.894531 Z M 173.109375 194.945312 C 173.335938 195.265625 173.445312 195.664062 173.445312 196.230469 C 173.445312 196.675781 173.382812 197.042969 173.324219 197.042969 C 173.167969 197.042969 172.3125 195.113281 172.3125 194.761719 C 172.328125 194.332031 172.742188 194.425781 173.109375 194.945312 Z M 218.707031 195.953125 C 218.964844 196.199219 222.636719 196.320312 223.542969 196.125 C 224.199219 195.953125 224.214844 195.96875 224.121094 196.308594 C 223.769531 197.453125 222.960938 198.617188 222.253906 199 C 221.902344 199.183594 221.582031 199.015625 220.359375 198.003906 C 219.011719 196.886719 218.371094 196.644531 216.746094 196.644531 C 214.972656 196.644531 214.300781 196.917969 212.585938 198.328125 C 209.570312 200.773438 208.960938 202.152344 208.621094 207.09375 C 208.53125 208.59375 208.421875 209.847656 208.394531 209.878906 C 208.363281 209.910156 208.253906 209.542969 208.164062 209.066406 C 208.054688 208.59375 207.902344 208.105469 207.8125 207.964844 C 207.6875 207.796875 207.671875 207.921875 207.78125 208.378906 C 207.980469 209.390625 207.933594 211.347656 207.671875 212.234375 L 207.429688 213.03125 L 207.320312 212.3125 C 207.261719 211.792969 207.230469 211.976562 207.246094 212.910156 C 207.261719 214.027344 207.214844 214.285156 206.910156 214.699219 C 206.710938 214.972656 206.542969 215.25 206.542969 215.3125 C 206.542969 215.371094 206.632812 215.296875 206.753906 215.128906 C 206.953125 214.867188 206.984375 214.929688 207.078125 215.695312 C 207.121094 216.152344 207.320312 216.992188 207.503906 217.542969 C 207.71875 218.203125 207.828125 218.859375 207.796875 219.410156 L 207.75 220.269531 L 207.460938 219.625 C 206.878906 218.339844 206.21875 216.273438 205.867188 214.667969 C 205.5625 213.277344 205.515625 212.542969 205.515625 209.664062 C 205.515625 206.511719 205.546875 206.191406 205.945312 204.707031 C 206.480469 202.6875 207.429688 200.742188 208.394531 199.65625 C 210.273438 197.53125 213.089844 196.230469 216.425781 195.925781 C 218.382812 195.757812 218.507812 195.757812 218.707031 195.953125 Z M 213.777344 198.632812 C 212.585938 199.230469 211.667969 199.824219 210.933594 200.453125 L 210.320312 200.988281 L 210.6875 200.484375 C 211.46875 199.367188 213.304688 198.171875 214.253906 198.171875 C 214.574219 198.171875 214.46875 198.28125 213.777344 198.632812 Z M 204.78125 204.324219 C 204.460938 205.167969 204.246094 208.242188 204.339844 210.859375 L 204.414062 213.519531 L 203.863281 211.59375 C 202.976562 208.53125 203.097656 206.726562 204.339844 204.644531 C 204.859375 203.757812 205.058594 203.636719 204.78125 204.324219 Z M 155.359375 205.503906 C 155.558594 205.578125 155.617188 205.855469 155.617188 206.863281 C 155.617188 207.570312 155.542969 208.132812 155.464844 208.132812 C 155.207031 208.132812 154.320312 207.308594 154.074219 206.835938 C 153.78125 206.269531 153.921875 205.902344 154.546875 205.625 C 154.824219 205.519531 155.066406 205.410156 155.082031 205.410156 C 155.082031 205.410156 155.222656 205.441406 155.359375 205.503906 Z M 173.046875 208.609375 C 173.308594 209.574219 173.429688 210.339844 173.367188 210.660156 C 173.246094 211.300781 173 211.347656 172.925781 210.75 C 172.878906 210.507812 172.832031 210.707031 172.816406 211.179688 C 172.800781 211.667969 172.742188 212.175781 172.664062 212.28125 C 172.375 212.742188 172.160156 211.011719 172.175781 208.347656 C 172.175781 205.304688 172.175781 205.304688 173.046875 208.609375 Z M 157.851562 206.621094 C 158.910156 207.570312 158.695312 208.609375 157.46875 208.609375 C 157.058594 208.609375 157.058594 208.609375 157.058594 207.324219 C 157.058594 206.621094 157.089844 206.039062 157.132812 206.039062 C 157.179688 206.039062 157.5 206.3125 157.851562 206.621094 Z M 167.019531 208.242188 C 167.507812 209.847656 167.722656 212.878906 167.507812 215.480469 C 167.417969 216.6875 167.308594 217.699219 167.277344 217.726562 C 167.078125 217.925781 166.851562 215.984375 166.710938 212.953125 C 166.621094 211.058594 166.5 208.929688 166.4375 208.242188 C 166.316406 206.695312 166.542969 206.695312 167.019531 208.242188 Z M 177.054688 209.511719 C 176.765625 211.195312 176.503906 211.300781 176.503906 209.757812 C 176.503906 209.160156 176.597656 208.730469 176.84375 208.347656 C 177.027344 208.042969 177.210938 207.828125 177.253906 207.875 C 177.300781 207.921875 177.210938 208.65625 177.054688 209.511719 Z M 176 210.78125 C 175.984375 211.960938 175.726562 212.480469 175.710938 211.378906 C 175.695312 210.460938 175.738281 210.492188 174.929688 210.8125 C 174.546875 210.980469 174.730469 210.523438 175.25 210.0625 C 175.863281 209.496094 176.015625 209.632812 176 210.78125 Z M 224.136719 211.101562 C 224.304688 211.347656 224.351562 211.625 224.289062 211.835938 C 224.167969 212.234375 223.128906 213.429688 222.914062 213.429688 C 222.835938 213.429688 222.777344 212.816406 222.777344 212.066406 L 222.777344 210.707031 L 223.328125 210.707031 C 223.738281 210.707031 223.953125 210.8125 224.136719 211.101562 Z M 221.09375 214.039062 C 220.894531 214.238281 220.113281 213.828125 220.066406 213.488281 C 220.023438 213.109375 220.390625 212.265625 220.816406 211.777344 C 221.0625 211.484375 221.078125 211.546875 221.125 212.710938 C 221.152344 213.398438 221.140625 213.996094 221.09375 214.039062 Z M 207.980469 213.03125 C 207.78125 213.703125 207.582031 214.210938 207.550781 214.179688 C 207.503906 214.132812 207.644531 213.550781 207.84375 212.894531 C 208.039062 212.21875 208.238281 211.699219 208.269531 211.746094 C 208.316406 211.777344 208.179688 212.359375 207.980469 213.03125 Z M 189.574219 214.117188 C 189.617188 214.761719 189.710938 215.679688 189.757812 216.167969 C 189.832031 216.808594 189.816406 216.980469 189.679688 216.808594 C 189.542969 216.597656 189.511719 216.597656 189.496094 216.808594 C 189.433594 217.515625 189.21875 215.554688 189.207031 214.269531 C 189.207031 212.527344 189.417969 212.433594 189.574219 214.117188 Z M 199.609375 216.289062 C 199.808594 216.65625 199.824219 218.84375 199.625 218.617188 C 199.5625 218.554688 199.441406 218.25 199.335938 217.925781 C 199.167969 217.421875 199.179688 217.40625 199.394531 217.683594 C 199.71875 218.109375 199.6875 217.851562 199.335938 217.054688 C 199.152344 216.6875 198.984375 215.878906 198.9375 215.128906 L 198.84375 213.84375 L 199.136719 214.882812 C 199.289062 215.464844 199.503906 216.089844 199.609375 216.289062 Z M 204.628906 215.234375 C 204.507812 215.523438 204.476562 215.433594 204.476562 214.714844 C 204.476562 213.917969 204.492188 213.886719 204.628906 214.347656 C 204.71875 214.652344 204.71875 215.003906 204.628906 215.234375 Z M 196.640625 215.355469 L 196.734375 215.921875 L 196.503906 215.355469 C 196.382812 215.050781 196.289062 214.652344 196.273438 214.484375 L 196.273438 214.164062 L 196.410156 214.484375 C 196.472656 214.652344 196.582031 215.050781 196.640625 215.355469 Z M 188.792969 218.890625 C 188.867188 219.734375 188.839844 220.039062 188.730469 219.871094 C 188.640625 219.75 188.5625 219.382812 188.578125 219.058594 C 188.578125 218.753906 188.457031 218.171875 188.316406 217.789062 C 188.105469 217.191406 188.089844 217.007812 188.257812 216.613281 L 188.472656 216.152344 L 188.59375 216.917969 C 188.65625 217.347656 188.746094 218.234375 188.792969 218.890625 Z M 149.316406 220.238281 C 149.4375 220.835938 149.175781 221.953125 148.917969 221.953125 C 148.566406 221.953125 147.738281 221.0625 147.738281 220.679688 C 147.738281 219.976562 149.191406 219.566406 149.316406 220.238281 Z M 149.316406 220.238281 " fill-opacity="1" fill-rule="nonzero"/></g><path fill="#ffffff" d="M 205.792969 123.382812 C 207.351562 123.949219 210.03125 125.371094 211.558594 126.472656 C 215.890625 129.59375 219.730469 134.828125 218.949219 136.554688 C 218.675781 137.136719 218.261719 137.058594 217.28125 136.28125 C 214.527344 134.0625 214.34375 134.046875 216.777344 136.21875 C 217.878906 137.230469 218.613281 137.765625 218.859375 137.765625 C 219.867188 137.765625 219.992188 135.914062 219.105469 134 C 217.40625 130.390625 213.058594 126.351562 208.699219 124.328125 C 207.292969 123.671875 205.332031 122.984375 204.949219 122.984375 C 204.8125 123 205.179688 123.167969 205.792969 123.382812 Z M 205.792969 123.382812 " fill-opacity="1" fill-rule="nonzero"/><path fill="#ffffff" d="M 209.753906 129.316406 C 209.753906 129.457031 209.863281 129.5625 210.015625 129.5625 C 210.152344 129.5625 210.230469 129.488281 210.199219 129.378906 C 210.105469 129.089844 209.753906 129.027344 209.753906 129.316406 Z M 209.753906 129.316406 " fill-opacity="1" fill-rule="nonzero"/><path fill="#ffffff" d="M 189.910156 131.507812 C 189.757812 131.75 189.96875 131.917969 190.167969 131.703125 C 190.292969 131.597656 190.292969 131.507812 190.183594 131.429688 C 190.09375 131.382812 189.96875 131.414062 189.910156 131.507812 Z M 189.910156 131.507812 " fill-opacity="1" fill-rule="nonzero"/><path fill="#ffffff" d="M 193.214844 131.980469 C 193.214844 132.074219 193.273438 132.132812 193.367188 132.132812 C 193.457031 132.132812 193.535156 132.074219 193.535156 131.980469 C 193.535156 131.890625 193.457031 131.8125 193.367188 131.8125 C 193.273438 131.8125 193.214844 131.890625 193.214844 131.980469 Z M 193.214844 131.980469 " fill-opacity="1" fill-rule="nonzero"/><path fill="#ffffff" d="M 173.460938 133.894531 C 173.183594 134.0625 173.335938 134.550781 173.675781 134.550781 C 174.027344 134.550781 174.148438 134.230469 173.902344 133.984375 C 173.765625 133.847656 173.597656 133.816406 173.460938 133.894531 Z M 173.460938 133.894531 " fill-opacity="1" fill-rule="nonzero"/><path fill="#ffffff" d="M 206.632812 134.046875 C 206.527344 134.230469 206.9375 134.582031 207.078125 134.445312 C 207.136719 134.382812 207.183594 134.246094 207.183594 134.121094 C 207.183594 133.878906 206.769531 133.832031 206.632812 134.046875 Z M 206.632812 134.046875 " fill-opacity="1" fill-rule="nonzero"/><path fill="#ffffff" d="M 193.855469 135.101562 C 193.855469 135.238281 193.964844 135.347656 194.101562 135.347656 C 194.238281 135.347656 194.332031 135.269531 194.300781 135.164062 C 194.195312 134.871094 193.855469 134.8125 193.855469 135.101562 Z M 193.855469 135.101562 " fill-opacity="1" fill-rule="nonzero"/><path fill="#ffffff" d="M 213.210938 137.121094 C 216.210938 140.289062 218.445312 144.710938 219.179688 148.917969 C 219.5 150.800781 219.410156 152.117188 218.933594 152.589844 C 218.597656 152.941406 218.445312 152.941406 214.132812 153.050781 C 209.449219 153.15625 208.164062 153.308594 205.457031 154.074219 C 203.816406 154.550781 200.128906 156.339844 199.320312 157.058594 C 198.8125 157.503906 198.8125 157.519531 199.226562 157.242188 C 200.207031 156.601562 202.746094 155.40625 204.125 154.949219 C 207.230469 153.90625 212.28125 153.449219 216.761719 153.816406 C 219.441406 154.03125 219.945312 153.921875 220.296875 153.097656 C 220.601562 152.363281 220.574219 151.566406 220.207031 149.699219 C 219.65625 146.824219 218.324219 143.457031 216.871094 141.222656 C 215.9375 139.800781 213.933594 137.457031 212.859375 136.554688 C 211.972656 135.804688 211.988281 135.835938 213.210938 137.121094 Z M 213.210938 137.121094 " fill-opacity="1" fill-rule="nonzero"/><path fill="#ffffff" d="M 204.78125 136.3125 C 204.78125 136.402344 204.890625 136.480469 205.011719 136.480469 C 205.148438 136.480469 205.257812 136.402344 205.257812 136.3125 C 205.257812 136.234375 205.148438 136.15625 205.011719 136.15625 C 204.890625 136.15625 204.78125 136.234375 204.78125 136.3125 Z M 204.78125 136.3125 " fill-opacity="1" fill-rule="nonzero"/><path fill="#ffffff" d="M 181.691406 136.890625 C 181.554688 137.242188 181.890625 137.566406 182.136719 137.320312 C 182.351562 137.121094 182.226562 136.632812 181.96875 136.632812 C 181.859375 136.632812 181.738281 136.753906 181.691406 136.890625 Z M 181.691406 136.890625 " fill-opacity="1" fill-rule="nonzero"/><path fill="#ffffff" d="M 208.621094 138.023438 C 208.46875 138.207031 208.453125 138.347656 208.578125 138.542969 C 208.804688 138.925781 209.449219 138.972656 209.695312 138.636719 C 210.167969 138.007812 209.128906 137.414062 208.621094 138.023438 Z M 208.621094 138.023438 " fill-opacity="1" fill-rule="nonzero"/><path fill="#ffffff" d="M 206.113281 138.175781 C 206.066406 138.316406 206.097656 138.515625 206.191406 138.605469 C 206.417969 138.835938 206.878906 138.46875 206.753906 138.148438 C 206.632812 137.839844 206.234375 137.855469 206.113281 138.175781 Z M 206.113281 138.175781 " fill-opacity="1" fill-rule="nonzero"/><path fill="#ffffff" d="M 175.632812 138.46875 C 175.511719 138.835938 175.953125 139.140625 176.261719 138.882812 C 176.445312 138.726562 176.460938 138.636719 176.320312 138.46875 C 176.078125 138.175781 175.753906 138.191406 175.632812 138.46875 Z M 175.632812 138.46875 " fill-opacity="1" fill-rule="nonzero"/><path fill="#ffffff" d="M 167.507812 138.636719 C 167.507812 138.757812 167.570312 138.910156 167.660156 138.972656 C 167.875 139.09375 168.335938 138.742188 168.210938 138.542969 C 168.074219 138.316406 167.507812 138.390625 167.507812 138.636719 Z M 167.507812 138.636719 " fill-opacity="1" fill-rule="nonzero"/><path fill="#ffffff" d="M 156.445312 140.121094 C 155.496094 141.988281 154.871094 144.191406 155.265625 144.191406 C 155.421875 144.191406 157.242188 139.019531 157.132812 138.910156 C 157.101562 138.882812 156.796875 139.417969 156.445312 140.121094 Z M 156.445312 140.121094 " fill-opacity="1" fill-rule="nonzero"/><path fill="#ffffff" d="M 204.398438 140.121094 C 204.199219 140.320312 204.292969 140.488281 204.628906 140.488281 C 204.8125 140.488281 204.933594 140.410156 204.902344 140.304688 C 204.8125 140.074219 204.550781 139.96875 204.398438 140.121094 Z M 204.398438 140.121094 " fill-opacity="1" fill-rule="nonzero"/><path fill="#ffffff" d="M 191.4375 140.410156 C 191.4375 140.550781 191.546875 140.65625 191.683594 140.65625 C 191.804688 140.65625 191.929688 140.550781 191.929688 140.410156 C 191.929688 140.289062 191.804688 140.167969 191.683594 140.167969 C 191.546875 140.167969 191.4375 140.289062 191.4375 140.410156 Z M 191.4375 140.410156 " fill-opacity="1" fill-rule="nonzero"/><path fill="#ffffff" d="M 172.191406 141.253906 C 172.222656 141.40625 172.34375 141.542969 172.480469 141.542969 C 172.617188 141.542969 172.742188 141.40625 172.773438 141.253906 C 172.800781 141.054688 172.726562 140.976562 172.480469 140.976562 C 172.234375 140.976562 172.160156 141.054688 172.191406 141.253906 Z M 172.191406 141.253906 " fill-opacity="1" fill-rule="nonzero"/><path fill="#ffffff" d="M 201.398438 141.222656 C 201.398438 141.34375 201.507812 141.453125 201.644531 141.453125 C 201.765625 141.453125 201.890625 141.34375 201.890625 141.222656 C 201.890625 141.085938 201.765625 140.976562 201.644531 140.976562 C 201.507812 140.976562 201.398438 141.085938 201.398438 141.222656 Z M 201.398438 141.222656 " fill-opacity="1" fill-rule="nonzero"/><path fill="#ffffff" d="M 207.09375 142.109375 C 206.953125 142.355469 207.121094 142.476562 207.429688 142.371094 C 207.566406 142.308594 207.644531 142.1875 207.582031 142.109375 C 207.460938 141.894531 207.230469 141.894531 207.09375 142.109375 Z M 207.09375 142.109375 " fill-opacity="1" fill-rule="nonzero"/><path fill="#ffffff" d="M 160.347656 143.871094 C 159.246094 144.113281 158.328125 144.878906 157.777344 145.949219 C 157.578125 146.332031 157.515625 146.746094 157.578125 147.433594 C 157.652344 148.503906 157.976562 149.042969 158.878906 149.636719 C 159.230469 149.867188 159.503906 150.203125 159.566406 150.449219 C 159.84375 151.78125 160.515625 152.269531 161.984375 152.195312 C 163.300781 152.117188 164.1875 151.550781 164.476562 150.601562 C 164.648438 150.003906 164.632812 149.867188 164.308594 149.269531 C 163.972656 148.644531 163.972656 148.550781 164.203125 148.125 C 164.800781 146.960938 164.28125 145.308594 163.054688 144.464844 C 162.246094 143.914062 161.15625 143.671875 160.347656 143.871094 Z M 162.367188 144.726562 C 164.292969 145.734375 164.234375 147.726562 162.261719 148 C 160.347656 148.246094 158.386719 146.667969 159.015625 145.367188 C 159.476562 144.375 161.113281 144.070312 162.367188 144.726562 Z M 163.914062 149.609375 C 164.25 150.953125 162.0625 151.949219 160.746094 151.0625 C 159.828125 150.433594 159.933594 150.1875 161.128906 150.113281 C 161.90625 150.050781 162.304688 149.945312 162.78125 149.621094 C 163.574219 149.070312 163.773438 149.070312 163.914062 149.609375 Z M 163.914062 149.609375 " fill-opacity="1" fill-rule="nonzero"/><path fill="#ffffff" d="M 182.195312 144.832031 C 182.074219 145.046875 182.257812 145.355469 182.457031 145.230469 C 182.640625 145.109375 182.640625 144.664062 182.457031 144.664062 C 182.367188 144.664062 182.257812 144.742188 182.195312 144.832031 Z M 182.195312 144.832031 " fill-opacity="1" fill-rule="nonzero"/><path fill="#ffffff" d="M 167.0625 147.128906 C 167.15625 147.417969 167.660156 147.464844 167.660156 147.175781 C 167.660156 147.023438 167.523438 146.914062 167.324219 146.914062 C 167.125 146.914062 167.019531 147.007812 167.0625 147.128906 Z M 167.0625 147.128906 " fill-opacity="1" fill-rule="nonzero"/><path fill="#ffffff" d="M 169.789062 147.207031 C 169.511719 147.296875 169.542969 147.664062 169.820312 147.785156 C 170.140625 147.910156 170.460938 147.496094 170.199219 147.28125 C 170.078125 147.207031 169.894531 147.160156 169.789062 147.207031 Z M 169.789062 147.207031 " fill-opacity="1" fill-rule="nonzero"/><path fill="#ffffff" d="M 152.589844 151.765625 C 152.652344 154.59375 152.863281 155.4375 153.691406 156.21875 C 154.242188 156.738281 155.359375 156.660156 158.558594 155.925781 C 162.488281 155.023438 163.4375 154.886719 166.054688 154.886719 C 169.160156 154.886719 172.191406 155.5 174.867188 156.660156 C 175.371094 156.859375 175.632812 156.9375 175.464844 156.800781 C 174.898438 156.371094 171.824219 155.253906 170.003906 154.824219 C 168.425781 154.457031 167.90625 154.410156 165.488281 154.410156 C 163.023438 154.425781 162.472656 154.488281 159.828125 155.007812 C 156.765625 155.621094 155.28125 155.726562 154.5625 155.40625 C 153.707031 155.023438 153.09375 153.25 152.925781 150.738281 C 152.878906 149.960938 152.757812 149.285156 152.679688 149.226562 C 152.589844 149.164062 152.542969 150.113281 152.589844 151.765625 Z M 152.589844 151.765625 " fill-opacity="1" fill-rule="nonzero"/><path fill="#ffffff" d="M 203.40625 149.820312 C 203.34375 149.914062 203.375 150.082031 203.464844 150.171875 C 203.679688 150.386719 204.183594 150.203125 204.09375 149.929688 C 204 149.667969 203.542969 149.59375 203.40625 149.820312 Z M 203.40625 149.820312 " fill-opacity="1" fill-rule="nonzero"/><path fill="#ffffff" d="M 168.136719 151.03125 C 167.984375 151.214844 167.984375 151.320312 168.105469 151.445312 C 168.335938 151.671875 168.792969 151.503906 168.792969 151.199219 C 168.792969 150.863281 168.363281 150.753906 168.136719 151.03125 Z M 168.136719 151.03125 " fill-opacity="1" fill-rule="nonzero"/><path fill="#ffffff" d="M 221.351562 156.675781 C 220.878906 156.921875 220.234375 157.351562 219.898438 157.640625 L 219.316406 158.175781 L 220.175781 157.609375 C 221.84375 156.507812 223.1875 156.371094 223.800781 157.226562 C 224.046875 157.578125 224.0625 157.578125 224.0625 157.273438 C 224.0625 157.105469 223.9375 156.800781 223.800781 156.601562 C 223.449219 156.09375 222.453125 156.125 221.351562 156.675781 Z M 221.351562 156.675781 " fill-opacity="1" fill-rule="nonzero"/><path fill="#ffffff" d="M 165.257812 157.777344 C 164.585938 158.070312 163.898438 158.695312 163.453125 159.414062 C 162.996094 160.164062 163.179688 160.226562 163.652344 159.492188 C 163.867188 159.171875 164.339844 158.726562 164.691406 158.527344 C 165.226562 158.222656 165.519531 158.160156 166.453125 158.207031 C 168.074219 158.285156 168.761719 158.679688 170.722656 160.671875 C 172.480469 162.445312 172.558594 162.492188 176.183594 164.160156 C 176.84375 164.449219 177.882812 165.078125 178.507812 165.535156 C 179.304688 166.132812 179.441406 166.195312 178.984375 165.78125 C 178.066406 164.9375 176.535156 163.976562 174.410156 162.902344 C 172.695312 162.03125 172.433594 161.847656 170.796875 160.164062 C 169.789062 159.140625 168.71875 158.207031 168.320312 158.007812 C 167.386719 157.546875 165.992188 157.441406 165.257812 157.777344 Z M 165.257812 157.777344 " fill-opacity="1" fill-rule="nonzero"/><path fill="#ffffff" d="M 221.398438 157.917969 C 220.800781 158.175781 219.53125 159.523438 219.105469 160.363281 C 218.414062 161.695312 218.214844 162.8125 218.125 165.796875 C 218.03125 168.382812 218.003906 168.6875 217.742188 168.75 C 217.269531 168.839844 217.144531 168.089844 217.191406 165.167969 C 217.222656 162.644531 217.160156 161.957031 216.902344 162.214844 C 216.65625 162.460938 216.503906 164.585938 216.503906 167.863281 C 216.503906 170.082031 216.441406 171.640625 216.335938 171.839844 C 216.152344 172.191406 215.613281 172.253906 215.492188 171.933594 C 215.445312 171.808594 215.355469 169.957031 215.292969 167.832031 C 215.21875 165.703125 215.125 163.945312 215.050781 163.945312 C 214.789062 163.945312 214.695312 165.261719 214.589844 170.140625 C 214.542969 172.972656 214.4375 175.375 214.359375 175.480469 C 214.175781 175.757812 213.65625 175.726562 213.550781 175.421875 C 213.488281 175.28125 213.441406 173.707031 213.441406 171.933594 C 213.441406 168.519531 213.226562 164.175781 213.042969 163.425781 C 212.859375 162.734375 212.601562 162.996094 212.324219 164.128906 C 212.171875 164.816406 212.003906 165.167969 211.820312 165.199219 C 211.484375 165.261719 211.363281 164.632812 211.363281 162.964844 C 211.363281 161.941406 211.316406 161.679688 211.101562 161.589844 C 210.703125 161.433594 210.566406 161.847656 210.550781 163.148438 C 210.550781 164.800781 210.367188 165.460938 209.695312 166.195312 C 209.386719 166.546875 209.066406 167.097656 208.972656 167.433594 C 208.882812 167.769531 208.789062 171.183594 208.761719 175.023438 C 208.699219 181.632812 208.683594 182 208.394531 182.199219 C 208.011719 182.472656 207.8125 182.488281 207.445312 182.230469 C 207.199219 182.046875 207.167969 181.28125 207.121094 172.390625 C 207.09375 163.792969 207.0625 162.660156 206.800781 161.910156 C 206.480469 160.898438 206.144531 160.546875 205.609375 160.609375 C 204.628906 160.730469 204.140625 162.535156 204.140625 166.132812 C 204.140625 168.121094 204.078125 168.78125 203.894531 169.023438 C 203.710938 169.269531 203.605469 169.300781 203.375 169.164062 C 203.113281 168.992188 203.082031 168.640625 203.007812 165.949219 C 202.914062 162.71875 202.824219 162.261719 202.132812 162.09375 C 201.597656 161.957031 200.863281 162.324219 199.378906 163.425781 C 197.148438 165.121094 194.804688 167.800781 193.351562 170.339844 C 192.648438 171.566406 191.699219 174.152344 191.546875 175.269531 C 191.425781 176.078125 191.578125 175.910156 192.464844 174.179688 C 193.199219 172.757812 193.917969 171.65625 194.132812 171.671875 C 194.195312 171.671875 194.253906 172.878906 194.269531 174.347656 C 194.285156 176.507812 194.363281 177.289062 194.621094 178.28125 C 196.289062 184.523438 201.003906 189.144531 207.109375 190.554688 C 208.898438 190.980469 211.789062 190.9375 213.535156 190.476562 C 215.09375 190.0625 217.160156 189.070312 218.277344 188.195312 C 218.722656 187.828125 219.132812 187.585938 219.179688 187.632812 C 219.410156 187.859375 218.292969 189.652344 217.3125 190.628906 C 215.722656 192.222656 214.132812 192.878906 211.835938 192.878906 C 210.550781 192.863281 207.351562 192.4375 205.945312 192.082031 C 205.300781 191.914062 204.78125 191.808594 204.78125 191.855469 C 204.78125 192.023438 206.25 192.542969 207.503906 192.816406 C 208.53125 193.03125 209.585938 193.109375 211.757812 193.109375 L 214.652344 193.109375 L 215.859375 192.464844 C 218.078125 191.304688 220.097656 188.824219 220.679688 186.605469 C 220.773438 186.207031 221.109375 185.519531 221.398438 185.058594 C 223.878906 181.28125 224.550781 177.363281 223.542969 172.652344 C 223.175781 170.90625 222.53125 169.164062 221.246094 166.40625 C 220.25 164.265625 220.039062 163.210938 220.34375 162.078125 C 220.648438 160.976562 221.460938 159.90625 222.410156 159.398438 C 223.371094 158.878906 223.480469 158.527344 222.820312 158.023438 C 222.332031 157.640625 222.070312 157.609375 221.398438 157.917969 Z M 221.398438 157.917969 " fill-opacity="1" fill-rule="nonzero"/><path fill="#ffffff" d="M 153.597656 158.46875 C 152.757812 158.695312 151.976562 159.125 151.503906 159.660156 C 151.136719 160.074219 151.121094 160.105469 151.441406 159.828125 C 152.085938 159.246094 153.046875 158.925781 154.121094 158.925781 C 155.925781 158.925781 157.609375 160.011719 159.476562 162.339844 C 160.027344 163.027344 160.085938 163.058594 160.484375 162.875 C 160.988281 162.644531 161.066406 162.339844 160.59375 162.460938 C 160.332031 162.523438 159.902344 162.167969 158.617188 160.839844 C 156.875 159.046875 156.109375 158.542969 154.777344 158.421875 C 154.394531 158.375 153.875 158.40625 153.597656 158.46875 Z M 153.597656 158.46875 " fill-opacity="1" fill-rule="nonzero"/><path fill="#ffffff" d="M 204.933594 159.613281 C 204.183594 159.875 204.15625 159.90625 204.691406 159.8125 C 205.792969 159.613281 206.648438 159.675781 206.984375 159.980469 C 207.550781 160.5 207.734375 160.164062 207.183594 159.613281 C 206.785156 159.214844 206.113281 159.214844 204.933594 159.613281 Z M 204.933594 159.613281 " fill-opacity="1" fill-rule="nonzero"/><path fill="#ffffff" d="M 201.691406 160.332031 C 200.621094 160.777344 198.386719 162.214844 197.46875 163.074219 C 197.039062 163.453125 196.976562 163.546875 197.300781 163.316406 C 199.210938 161.972656 199.824219 161.589844 200.988281 161.054688 C 201.707031 160.714844 202.609375 160.378906 202.976562 160.316406 C 203.359375 160.257812 203.695312 160.148438 203.742188 160.074219 C 203.910156 159.796875 202.578125 159.964844 201.691406 160.332031 Z M 201.691406 160.332031 " fill-opacity="1" fill-rule="nonzero"/><path fill="#ffffff" d="M 186.605469 180.164062 C 186.128906 180.546875 186.296875 180.792969 186.804688 180.4375 C 187.230469 180.132812 188.074219 180.101562 188.332031 180.363281 C 188.441406 180.453125 188.609375 180.5 188.730469 180.46875 C 189.050781 180.347656 187.996094 179.859375 187.445312 179.859375 C 187.183594 179.859375 186.804688 179.996094 186.605469 180.164062 Z M 186.605469 180.164062 " fill-opacity="1" fill-rule="nonzero"/><path fill="#ffffff" d="M 148.257812 180.945312 C 147.816406 182.382812 147.539062 184.632812 147.632812 185.964844 C 147.769531 188.089844 147.984375 188.289062 147.921875 186.207031 C 147.863281 184.386719 148.089844 182.015625 148.398438 181.003906 C 148.503906 180.714844 148.550781 180.453125 148.503906 180.410156 C 148.457031 180.363281 148.351562 180.609375 148.257812 180.945312 Z M 148.257812 180.945312 " fill-opacity="1" fill-rule="nonzero"/><path fill="#ffffff" d="M 187.078125 180.898438 C 186.464844 181.234375 185.503906 182.78125 184.90625 184.355469 C 184.292969 186.007812 182.242188 192.496094 181.800781 194.257812 C 181.386719 195.863281 181.324219 197.746094 181.691406 198.433594 C 182.152344 199.320312 182.839844 199.78125 183.742188 199.78125 C 184.691406 199.78125 185.273438 199.503906 185.929688 198.753906 C 186.40625 198.234375 187.109375 196.660156 187.109375 196.152344 C 187.109375 196.03125 187.171875 195.925781 187.246094 195.925781 C 187.382812 195.925781 187.734375 198.328125 187.75 199.382812 C 187.75 200.421875 188.011719 199.6875 188.117188 198.296875 C 188.257812 196.535156 188.410156 195.757812 188.5625 195.863281 C 188.640625 195.910156 188.714844 196.046875 188.714844 196.167969 C 188.714844 196.675781 189.417969 198.234375 189.894531 198.769531 C 191.117188 200.179688 193.199219 200.085938 193.917969 198.585938 C 194.515625 197.316406 194.207031 195.601562 192.3125 189.820312 C 190.230469 183.40625 189.449219 181.753906 188.179688 180.976562 C 187.566406 180.609375 187.613281 180.609375 187.078125 180.898438 Z M 187.078125 180.898438 " fill-opacity="1" fill-rule="nonzero"/><path fill="#ffffff" d="M 179.136719 186.007812 L 178.664062 186.527344 L 179.183594 186.054688 C 179.472656 185.792969 179.71875 185.566406 179.71875 185.535156 C 179.71875 185.414062 179.582031 185.519531 179.136719 186.007812 Z M 179.136719 186.007812 " fill-opacity="1" fill-rule="nonzero"/><path fill="#ffffff" d="M 201.9375 192.144531 C 201.355469 192.390625 201.078125 192.816406 201.078125 193.460938 C 201.078125 194.242188 201.597656 194.640625 202.609375 194.640625 C 204.339844 194.640625 205.027344 192.847656 203.558594 192.160156 C 202.929688 191.855469 202.609375 191.855469 201.9375 192.144531 Z M 203.128906 193.550781 C 203.464844 193.875 203.359375 194.300781 202.929688 194.410156 C 202.042969 194.640625 201.292969 194.117188 201.722656 193.597656 C 201.964844 193.308594 202.871094 193.277344 203.128906 193.550781 Z M 203.128906 193.550781 " fill-opacity="1" fill-rule="nonzero"/><path fill="#ffffff" d="M 176.351562 192.648438 C 175.328125 193.507812 175.96875 194.960938 177.164062 194.46875 C 177.699219 194.242188 178.113281 193.507812 177.988281 193 C 177.898438 192.679688 177.347656 192.222656 177.039062 192.222656 C 176.933594 192.222656 176.628906 192.421875 176.351562 192.648438 Z M 176.351562 192.648438 " fill-opacity="1" fill-rule="nonzero"/><path fill="#ffffff" d="M 179.304688 193.996094 C 179.242188 194.101562 179.257812 194.257812 179.351562 194.347656 C 179.457031 194.457031 179.550781 194.441406 179.625 194.316406 C 179.6875 194.210938 179.671875 194.058594 179.582031 193.964844 C 179.472656 193.859375 179.382812 193.875 179.304688 193.996094 Z M 179.304688 193.996094 " fill-opacity="1" fill-rule="nonzero"/><path fill="#ffffff" d="M 205.148438 196 C 205.042969 196.292969 205.210938 196.566406 205.5 196.566406 C 205.652344 196.566406 205.746094 196.414062 205.746094 196.167969 C 205.746094 195.726562 205.300781 195.601562 205.148438 196 Z M 205.148438 196 " fill-opacity="1" fill-rule="nonzero"/><path fill="#ffffff" d="M 178.539062 196.183594 C 178.3125 196.414062 178.433594 196.75 178.707031 196.703125 C 178.863281 196.675781 178.984375 196.535156 178.984375 196.414062 C 178.984375 196.167969 178.707031 196.015625 178.539062 196.183594 Z M 178.539062 196.183594 " fill-opacity="1" fill-rule="nonzero"/><path fill="#ffffff" d="M 198.476562 197.4375 C 196.949219 197.988281 194.421875 200.117188 193.933594 201.28125 C 193.429688 202.472656 193.796875 203.988281 194.746094 204.753906 C 195.28125 205.167969 196.59375 205.5625 197.40625 205.5625 C 197.957031 205.5625 198.035156 205.609375 198.035156 205.976562 C 198.035156 206.542969 198.308594 207.003906 198.644531 207.003906 C 199.105469 207.003906 199.320312 206.664062 199.320312 205.855469 C 199.320312 205.121094 199.335938 205.074219 199.945312 204.769531 C 201.324219 204.066406 202.515625 202.59375 202.824219 201.234375 C 203.40625 198.679688 200.957031 196.550781 198.476562 197.4375 Z M 199.488281 198.585938 C 200.34375 199.03125 200.863281 200.789062 200.4375 201.785156 C 200.328125 202.015625 200.296875 201.875 200.3125 201.296875 C 200.34375 200.300781 200.054688 199.566406 199.503906 199.183594 C 199.167969 198.96875 198.800781 198.90625 197.820312 198.9375 C 197.148438 198.953125 196.582031 198.9375 196.582031 198.894531 C 196.582031 198.769531 198.078125 198.355469 198.554688 198.34375 C 198.800781 198.34375 199.226562 198.449219 199.488281 198.585938 Z M 197.574219 200.039062 C 198.078125 200.515625 197.882812 202.03125 197.300781 202.03125 C 197.160156 202.03125 197.070312 202.183594 197.070312 202.425781 C 197.070312 202.902344 196.335938 203.453125 195.554688 203.589844 C 194.46875 203.757812 193.8125 202.535156 194.390625 201.417969 C 195.050781 200.148438 196.839844 199.382812 197.574219 200.039062 Z M 197.605469 203.574219 C 198.066406 203.742188 197.699219 203.957031 196.933594 203.957031 C 196.199219 203.941406 196.183594 203.941406 196.582031 203.710938 C 197.023438 203.453125 197.238281 203.4375 197.605469 203.574219 Z M 197.605469 203.574219 " fill-opacity="1" fill-rule="nonzero"/><path fill="#ffffff" d="M 177.179688 198.019531 C 177.210938 198.113281 177.300781 198.203125 177.378906 198.203125 C 177.46875 198.203125 177.5625 198.113281 177.589844 198.019531 C 177.621094 197.929688 177.53125 197.851562 177.378906 197.851562 C 177.238281 197.851562 177.132812 197.929688 177.179688 198.019531 Z M 177.179688 198.019531 " fill-opacity="1" fill-rule="nonzero"/><path fill="#ffffff" d="M 181.265625 200.851562 C 181.109375 201.003906 181.292969 201.21875 181.570312 201.21875 C 181.691406 201.21875 181.800781 201.113281 181.800781 200.988281 C 181.800781 200.742188 181.460938 200.652344 181.265625 200.851562 Z M 181.265625 200.851562 " fill-opacity="1" fill-rule="nonzero"/><path fill="#ffffff" d="M 179.398438 202.671875 C 179.398438 202.765625 179.457031 202.824219 179.550781 202.824219 C 179.640625 202.824219 179.71875 202.765625 179.71875 202.671875 C 179.71875 202.582031 179.640625 202.503906 179.550781 202.503906 C 179.457031 202.503906 179.398438 202.582031 179.398438 202.671875 Z M 179.398438 202.671875 " fill-opacity="1" fill-rule="nonzero"/><path fill="#ffffff" d="M 200.144531 211.347656 C 200.144531 211.5625 200.175781 211.652344 200.222656 211.546875 C 200.269531 211.441406 200.269531 211.257812 200.222656 211.148438 C 200.175781 211.042969 200.144531 211.132812 200.144531 211.347656 Z M 200.144531 211.347656 " fill-opacity="1" fill-rule="nonzero"/><path fill="#ffffff" d="M 208.011719 207.03125 C 207.902344 207.308594 207.855469 207.570312 207.886719 207.597656 C 207.917969 207.644531 208.027344 207.429688 208.132812 207.15625 C 208.226562 206.863281 208.285156 206.605469 208.253906 206.574219 C 208.210938 206.542969 208.101562 206.742188 208.011719 207.03125 Z M 208.011719 207.03125 " fill-opacity="1" fill-rule="nonzero"/><path fill="#ffffff" d="M 207.382812 208.855469 C 207.382812 209.128906 207.414062 209.207031 207.460938 209.050781 C 207.488281 208.898438 207.488281 208.683594 207.445312 208.578125 C 207.414062 208.472656 207.367188 208.59375 207.382812 208.855469 Z M 207.382812 208.855469 " fill-opacity="1" fill-rule="nonzero"/><path fill="#ffffff" d="M 207.109375 210.382812 C 207.046875 210.917969 207.03125 211.410156 207.0625 211.441406 C 207.109375 211.484375 207.183594 211.074219 207.261719 210.535156 C 207.320312 209.984375 207.335938 209.511719 207.292969 209.480469 C 207.246094 209.433594 207.167969 209.847656 207.109375 210.382812 Z M 207.109375 210.382812 " fill-opacity="1" fill-rule="nonzero"/><path fill="#ffffff" d="M 218.382812 119.554688 C 218.15625 119.785156 218.277344 120.089844 218.597656 120.089844 C 218.828125 120.089844 218.921875 120 218.890625 119.816406 C 218.828125 119.523438 218.554688 119.386719 218.382812 119.554688 Z M 218.382812 119.554688 " fill-opacity="1" fill-rule="nonzero"/><path fill="#ffffff" d="M 160.988281 120.75 C 160.777344 121.421875 161.707031 121.804688 162.089844 121.191406 C 162.351562 120.78125 162.105469 120.414062 161.570312 120.414062 C 161.234375 120.414062 161.066406 120.503906 160.988281 120.75 Z M 160.988281 120.75 " fill-opacity="1" fill-rule="nonzero"/><path fill="#ffffff" d="M 145.351562 121.757812 C 145.199219 121.941406 145.214844 122.035156 145.414062 122.25 C 145.734375 122.554688 146.347656 122.308594 146.253906 121.882812 C 146.195312 121.546875 145.597656 121.453125 145.351562 121.757812 Z M 145.351562 121.757812 " fill-opacity="1" fill-rule="nonzero"/><path fill="#ffffff" d="M 236.5 122.675781 C 236.347656 122.921875 236.667969 123.214844 236.976562 123.089844 C 237.113281 123.042969 237.234375 122.875 237.234375 122.753906 C 237.234375 122.464844 236.652344 122.417969 236.5 122.675781 Z M 236.5 122.675781 " fill-opacity="1" fill-rule="nonzero"/><path fill="#ffffff" d="M 154.578125 123.152344 C 154.347656 123.425781 154.164062 123.777344 154.164062 123.949219 C 154.164062 124.742188 154.824219 125.386719 155.632812 125.386719 C 156.125 125.386719 157.058594 124.390625 157.058594 123.871094 C 157.058594 123.226562 156.398438 122.660156 155.632812 122.660156 C 155.113281 122.660156 154.914062 122.753906 154.578125 123.152344 Z M 154.578125 123.152344 " fill-opacity="1" fill-rule="nonzero"/><path fill="#ffffff" d="M 133.386719 124.34375 C 132.175781 124.773438 131.550781 125.785156 131.71875 127.007812 C 131.839844 127.878906 132.347656 128.507812 133.308594 128.996094 C 134.257812 129.457031 134.960938 129.515625 135.773438 129.179688 C 137.179688 128.597656 137.410156 126.457031 136.203125 125.171875 C 135.359375 124.300781 134.351562 123.992188 133.386719 124.34375 Z M 133.9375 126.289062 C 134.488281 126.5625 135.039062 127.390625 135.039062 127.910156 C 135.054688 129.164062 133.082031 128.964844 132.390625 127.636719 C 132.085938 127.039062 132.085938 126.6875 132.421875 126.335938 C 132.742188 125.96875 133.292969 125.953125 133.9375 126.289062 Z M 133.9375 126.289062 " fill-opacity="1" fill-rule="nonzero"/><path fill="#ffffff" d="M 245.070312 124.742188 C 242.957031 125.417969 242.5 128.140625 244.289062 129.363281 C 245.023438 129.867188 246.292969 129.867188 247.042969 129.363281 C 247.640625 128.964844 248.3125 127.804688 248.3125 127.175781 C 248.3125 126.519531 247.6875 125.429688 247.105469 125.0625 C 246.460938 124.683594 245.683594 124.542969 245.070312 124.742188 Z M 245.070312 124.742188 " fill-opacity="1" fill-rule="nonzero"/><path fill="#ffffff" d="M 232.628906 126.609375 C 232.507812 126.914062 232.828125 127.175781 233.164062 127.039062 C 233.472656 126.929688 233.347656 126.457031 233.011719 126.378906 C 232.859375 126.363281 232.675781 126.457031 232.628906 126.609375 Z M 232.628906 126.609375 " fill-opacity="1" fill-rule="nonzero"/><path fill="#ffffff" d="M 223.035156 128.230469 C 222.835938 128.429688 222.929688 128.597656 223.265625 128.597656 C 223.449219 128.597656 223.570312 128.523438 223.542969 128.414062 C 223.449219 128.1875 223.1875 128.078125 223.035156 128.230469 Z M 223.035156 128.230469 " fill-opacity="1" fill-rule="nonzero"/><path fill="#ffffff" d="M 150.09375 129.378906 C 149.941406 129.609375 150.261719 129.945312 150.539062 129.839844 C 150.890625 129.699219 150.859375 129.242188 150.476562 129.242188 C 150.308594 129.242188 150.125 129.304688 150.09375 129.378906 Z M 150.09375 129.378906 " fill-opacity="1" fill-rule="nonzero"/><path fill="#ffffff" d="M 140.992188 130.773438 C 140.992188 130.910156 141.128906 131.015625 141.3125 131.015625 C 141.496094 131.015625 141.632812 130.910156 141.632812 130.773438 C 141.632812 130.632812 141.496094 130.527344 141.3125 130.527344 C 141.128906 130.527344 140.992188 130.632812 140.992188 130.773438 Z M 140.992188 130.773438 " fill-opacity="1" fill-rule="nonzero"/><path fill="#ffffff" d="M 146.730469 130.800781 C 146.5 131.015625 146.621094 131.351562 146.898438 131.308594 C 147.050781 131.277344 147.171875 131.152344 147.171875 131.03125 C 147.171875 130.773438 146.898438 130.632812 146.730469 130.800781 Z M 146.730469 130.800781 " fill-opacity="1" fill-rule="nonzero"/><path fill="#ffffff" d="M 232.628906 132.625 C 231.574219 133.050781 231.269531 134.550781 232.078125 135.363281 C 232.738281 136.019531 233.394531 136.003906 234.113281 135.285156 C 234.894531 134.503906 234.910156 133.601562 234.160156 132.898438 C 233.6875 132.453125 233.242188 132.378906 232.628906 132.625 Z M 232.628906 132.625 " fill-opacity="1" fill-rule="nonzero"/><path fill="#ffffff" d="M 143.792969 133.128906 C 143.730469 133.21875 143.777344 133.386719 143.898438 133.511719 C 144.1875 133.800781 144.617188 133.554688 144.480469 133.203125 C 144.355469 132.914062 143.960938 132.851562 143.792969 133.128906 Z M 143.792969 133.128906 " fill-opacity="1" fill-rule="nonzero"/><path fill="#ffffff" d="M 130.511719 134.503906 C 130.128906 134.597656 129.972656 135.179688 130.28125 135.46875 C 130.433594 135.636719 130.664062 135.683594 130.9375 135.605469 C 131.734375 135.40625 131.320312 134.320312 130.511719 134.503906 Z M 130.511719 134.503906 " fill-opacity="1" fill-rule="nonzero"/><path fill="#ffffff" d="M 145.917969 134.488281 C 145.703125 134.71875 145.8125 135.054688 146.085938 135.011719 C 146.238281 134.980469 146.378906 134.84375 146.378906 134.71875 C 146.378906 134.472656 146.085938 134.320312 145.917969 134.488281 Z M 145.917969 134.488281 " fill-opacity="1" fill-rule="nonzero"/><path fill="#ffffff" d="M 137.195312 135.4375 C 137.136719 135.578125 137.164062 135.773438 137.257812 135.867188 C 137.519531 136.128906 138.023438 135.945312 138.023438 135.589844 C 138.023438 135.179688 137.335938 135.054688 137.195312 135.4375 Z M 137.195312 135.4375 " fill-opacity="1" fill-rule="nonzero"/><path fill="#ffffff" d="M 241.796875 136.816406 C 241.734375 136.90625 241.796875 137.105469 241.933594 137.242188 C 242.148438 137.441406 242.238281 137.457031 242.4375 137.289062 C 242.558594 137.183594 242.636719 137 242.589844 136.863281 C 242.484375 136.601562 241.949219 136.554688 241.796875 136.816406 Z M 241.796875 136.816406 " fill-opacity="1" fill-rule="nonzero"/><path fill="#ffffff" d="M 235.171875 140.136719 C 235.199219 140.289062 235.324219 140.410156 235.460938 140.410156 C 235.597656 140.410156 235.722656 140.289062 235.75 140.136719 C 235.78125 139.9375 235.707031 139.84375 235.460938 139.84375 C 235.214844 139.84375 235.140625 139.9375 235.171875 140.136719 Z M 235.171875 140.136719 " fill-opacity="1" fill-rule="nonzero"/><path fill="#ffffff" d="M 132.484375 140.167969 C 131.046875 140.609375 129.683594 141.820312 129.484375 142.828125 C 129.332031 143.714844 129.5625 145.78125 129.929688 146.59375 C 130.617188 148.152344 131.886719 148.996094 133.539062 149.011719 C 136.046875 149.011719 138.191406 146.714844 137.871094 144.359375 C 137.488281 141.496094 134.839844 139.449219 132.484375 140.167969 Z M 134.839844 141.070312 C 137.226562 142.261719 137.730469 145.460938 135.679688 146.484375 C 134.992188 146.824219 134.226562 146.839844 133.15625 146.515625 C 131.550781 146.042969 130.402344 144.742188 130.140625 143.121094 C 130.050781 142.539062 130.097656 142.402344 130.570312 141.863281 C 131.65625 140.625 133.324219 140.320312 134.839844 141.070312 Z M 134.839844 141.070312 " fill-opacity="1" fill-rule="nonzero"/><path fill="#ffffff" d="M 139.964844 142.21875 C 139.75 142.429688 139.890625 142.738281 140.195312 142.738281 C 140.363281 142.738281 140.515625 142.644531 140.515625 142.523438 C 140.515625 142.277344 140.117188 142.0625 139.964844 142.21875 Z M 139.964844 142.21875 " fill-opacity="1" fill-rule="nonzero"/><path fill="#ffffff" d="M 236.378906 142.523438 C 236.226562 142.675781 236.410156 142.90625 236.667969 142.90625 C 236.808594 142.90625 236.914062 142.796875 236.914062 142.660156 C 236.914062 142.414062 236.5625 142.339844 236.378906 142.523438 Z M 236.378906 142.523438 " fill-opacity="1" fill-rule="nonzero"/><path fill="#ffffff" d="M 244.351562 154.703125 C 242.789062 155.207031 241.167969 156.570312 240.449219 158.007812 C 240.003906 158.878906 239.851562 160.179688 240.128906 160.976562 C 240.539062 162.261719 242.007812 163.425781 243.738281 163.898438 C 247.824219 164.984375 252.339844 161.359375 251.296875 157.792969 C 250.976562 156.660156 250.058594 155.726562 248.664062 155.054688 C 247.777344 154.640625 247.363281 154.550781 246.308594 154.519531 C 245.542969 154.488281 244.75 154.566406 244.351562 154.703125 Z M 246.875 155.542969 C 247.519531 155.804688 247.992188 156.417969 247.992188 156.996094 C 247.992188 157.578125 247.152344 158.972656 246.371094 159.675781 C 244.472656 161.390625 241.886719 161.847656 240.9375 160.640625 C 240.082031 159.554688 241 157.425781 242.851562 156.234375 C 244.320312 155.300781 245.683594 155.054688 246.875 155.542969 Z M 246.875 155.542969 " fill-opacity="1" fill-rule="nonzero"/><path fill="#ffffff" d="M 127.878906 159.859375 C 127.816406 159.996094 127.847656 160.195312 127.9375 160.289062 C 128.183594 160.53125 128.660156 160.304688 128.597656 159.980469 C 128.519531 159.613281 128 159.523438 127.878906 159.859375 Z M 127.878906 159.859375 " fill-opacity="1" fill-rule="nonzero"/><path fill="#ffffff" d="M 127.25 164.511719 C 126.425781 165.320312 126.898438 166.835938 127.953125 166.835938 C 128.503906 166.835938 129.421875 165.917969 129.421875 165.382812 C 129.421875 165.015625 129.132812 164.402344 128.871094 164.234375 C 128.488281 163.976562 127.632812 164.113281 127.25 164.511719 Z M 127.25 164.511719 " fill-opacity="1" fill-rule="nonzero"/><path fill="#ffffff" d="M 132.484375 166.835938 C 132.484375 167.082031 132.558594 167.171875 132.757812 167.144531 C 132.910156 167.113281 133.035156 166.972656 133.035156 166.835938 C 133.035156 166.714844 132.910156 166.578125 132.757812 166.546875 C 132.558594 166.515625 132.484375 166.605469 132.484375 166.835938 Z M 132.484375 166.835938 " fill-opacity="1" fill-rule="nonzero"/><path fill="#ffffff" d="M 134.320312 167.496094 C 134.257812 167.585938 134.273438 167.738281 134.367188 167.832031 C 134.550781 168.03125 135.085938 167.832031 134.992188 167.585938 C 134.917969 167.339844 134.457031 167.265625 134.320312 167.496094 Z M 134.320312 167.496094 " fill-opacity="1" fill-rule="nonzero"/><path fill="#ffffff" d="M 136.171875 168.121094 C 136.171875 168.367188 136.246094 168.457031 136.445312 168.429688 C 136.601562 168.398438 136.738281 168.257812 136.738281 168.121094 C 136.738281 168 136.601562 167.863281 136.445312 167.832031 C 136.246094 167.800781 136.171875 167.890625 136.171875 168.121094 Z M 136.171875 168.121094 " fill-opacity="1" fill-rule="nonzero"/><path fill="#ffffff" d="M 246.308594 171.183594 C 246.171875 171.394531 246.355469 171.65625 246.628906 171.65625 C 246.769531 171.65625 246.875 171.519531 246.875 171.335938 C 246.875 171.015625 246.476562 170.90625 246.308594 171.183594 Z M 246.308594 171.183594 " fill-opacity="1" fill-rule="nonzero"/><path fill="#ffffff" d="M 133.035156 173.429688 C 132.972656 173.539062 133.003906 173.691406 133.09375 173.785156 C 133.308594 173.996094 133.816406 173.8125 133.722656 173.554688 C 133.632812 173.277344 133.171875 173.203125 133.035156 173.429688 Z M 133.035156 173.429688 " fill-opacity="1" fill-rule="nonzero"/><path fill="#ffffff" d="M 242.789062 173.675781 C 242.730469 173.828125 242.804688 173.96875 242.941406 174.027344 C 243.25 174.136719 243.570312 173.84375 243.417969 173.601562 C 243.265625 173.355469 242.898438 173.386719 242.789062 173.675781 Z M 242.789062 173.675781 " fill-opacity="1" fill-rule="nonzero"/><path fill="#ffffff" d="M 239.101562 175.695312 C 238.828125 176.09375 238.902344 176.429688 239.347656 176.660156 C 239.730469 176.875 240.449219 176.460938 240.449219 176.03125 C 240.449219 175.34375 239.5 175.113281 239.101562 175.695312 Z M 239.101562 175.695312 " fill-opacity="1" fill-rule="nonzero"/><path fill="#ffffff" d="M 248.972656 179.597656 C 248.269531 179.828125 247.808594 180.453125 247.777344 181.21875 C 247.746094 182.367188 249.0625 182.964844 250.242188 182.351562 C 251.910156 181.496094 250.746094 179 248.972656 179.597656 Z M 250.53125 180.851562 C 250.839844 181.160156 250.746094 181.570312 250.304688 181.9375 C 249.78125 182.335938 249.339844 182.367188 249.140625 181.984375 C 248.742188 181.234375 249.9375 180.253906 250.53125 180.851562 Z M 250.53125 180.851562 " fill-opacity="1" fill-rule="nonzero"/><path fill="#ffffff" d="M 135.054688 180.011719 C 135.054688 180.226562 135.160156 180.332031 135.375 180.332031 C 135.589844 180.332031 135.695312 180.226562 135.695312 180.011719 C 135.695312 179.796875 135.589844 179.691406 135.375 179.691406 C 135.160156 179.691406 135.054688 179.796875 135.054688 180.011719 Z M 135.054688 180.011719 " fill-opacity="1" fill-rule="nonzero"/><g clip-path="url(#e7e353e1fc)"><path fill="#ffffff" d="M 126.242188 181.3125 C 124.773438 181.601562 123.289062 182.75 122.84375 183.945312 C 122.753906 184.1875 122.675781 184.785156 122.675781 185.289062 C 122.675781 186.773438 123.363281 187.644531 125.183594 188.472656 C 126.285156 188.976562 128.476562 189.175781 129.699219 188.871094 C 132.222656 188.226562 132.910156 185.765625 131.246094 183.363281 C 130.695312 182.566406 129.179688 181.542969 128.335938 181.402344 C 127.113281 181.1875 126.914062 181.175781 126.242188 181.3125 Z M 130.722656 185.839844 C 131.75 186.527344 131.472656 187.632812 130.15625 188.136719 C 128.8125 188.65625 126.546875 188.210938 126.285156 187.402344 C 126.085938 186.742188 126.332031 186.332031 127.203125 185.902344 C 128.335938 185.335938 129.929688 185.304688 130.722656 185.839844 Z M 130.722656 185.839844 " fill-opacity="1" fill-rule="nonzero"/></g><path fill="#ffffff" d="M 141.390625 181.632812 C 141.328125 181.726562 141.359375 181.894531 141.449219 181.984375 C 141.664062 182.199219 142.167969 182.015625 142.078125 181.738281 C 141.984375 181.480469 141.527344 181.402344 141.390625 181.632812 Z M 141.390625 181.632812 " fill-opacity="1" fill-rule="nonzero"/><path fill="#ffffff" d="M 244.457031 182.996094 C 244.457031 183.117188 244.566406 183.222656 244.703125 183.222656 C 244.824219 183.222656 244.949219 183.117188 244.949219 182.996094 C 244.949219 182.855469 244.824219 182.75 244.703125 182.75 C 244.566406 182.75 244.457031 182.855469 244.457031 182.996094 Z M 244.457031 182.996094 " fill-opacity="1" fill-rule="nonzero"/><path fill="#ffffff" d="M 135.453125 188.058594 C 135.375 188.152344 135.40625 188.320312 135.496094 188.410156 C 135.710938 188.625 136.21875 188.441406 136.125 188.167969 C 136.046875 187.90625 135.589844 187.828125 135.453125 188.058594 Z M 135.453125 188.058594 " fill-opacity="1" fill-rule="nonzero"/><path fill="#ffffff" d="M 135.207031 195.449219 C 134.734375 195.925781 135.039062 196.445312 135.742188 196.367188 C 136.140625 196.335938 136.261719 196.246094 136.308594 195.941406 C 136.339844 195.695312 136.246094 195.464844 136.078125 195.328125 C 135.695312 195.050781 135.589844 195.066406 135.207031 195.449219 Z M 135.207031 195.449219 " fill-opacity="1" fill-rule="nonzero"/><path fill="#ffffff" d="M 231.207031 195.449219 C 231.128906 195.542969 231.160156 195.710938 231.253906 195.800781 C 231.46875 196.015625 231.972656 195.832031 231.878906 195.558594 C 231.804688 195.296875 231.34375 195.21875 231.207031 195.449219 Z M 231.207031 195.449219 " fill-opacity="1" fill-rule="nonzero"/><path fill="#ffffff" d="M 130.554688 197.148438 C 130.371094 197.378906 130.234375 197.667969 130.234375 197.777344 C 130.234375 199.0625 132.132812 199.824219 133.050781 198.90625 C 133.507812 198.449219 133.523438 198.3125 133.203125 197.699219 C 132.851562 197.027344 132.347656 196.71875 131.566406 196.71875 C 131.03125 196.71875 130.832031 196.8125 130.554688 197.148438 Z M 132.175781 197.085938 C 132.789062 197.578125 132.589844 198.171875 131.839844 198.171875 C 131.320312 198.171875 131.03125 197.898438 131.03125 197.4375 C 131.03125 196.902344 131.703125 196.703125 132.175781 197.085938 Z M 132.175781 197.085938 " fill-opacity="1" fill-rule="nonzero"/><path fill="#ffffff" d="M 144.847656 202.949219 C 144.265625 203.160156 143.882812 203.695312 143.882812 204.292969 C 143.882812 205.546875 145.136719 206.097656 146.039062 205.242188 C 146.730469 204.617188 146.589844 203.484375 145.796875 203.070312 C 145.320312 202.824219 145.230469 202.808594 144.847656 202.949219 Z M 144.847656 202.949219 " fill-opacity="1" fill-rule="nonzero"/><path fill="#ffffff" d="M 230.058594 205.578125 C 229.921875 205.808594 230.242188 206.113281 230.472656 205.976562 C 230.5625 205.914062 230.640625 205.808594 230.640625 205.730469 C 230.640625 205.519531 230.183594 205.394531 230.058594 205.578125 Z M 230.058594 205.578125 " fill-opacity="1" fill-rule="nonzero"/><path fill="#ffffff" d="M 217.511719 207.109375 C 217.238281 207.214844 217.253906 207.613281 217.527344 207.90625 C 217.726562 208.089844 217.789062 208.089844 217.941406 207.890625 C 218.308594 207.460938 218.003906 206.925781 217.511719 207.109375 Z M 217.511719 207.109375 " fill-opacity="1" fill-rule="nonzero"/><path fill="#ffffff" d="M 224.8125 207.429688 C 224.550781 207.691406 224.703125 207.996094 225.054688 207.949219 C 225.253906 207.921875 225.421875 207.78125 225.421875 207.660156 C 225.421875 207.398438 224.996094 207.246094 224.8125 207.429688 Z M 224.8125 207.429688 " fill-opacity="1" fill-rule="nonzero"/><path fill="#ffffff" d="M 225.820312 209.175781 C 225.820312 209.3125 225.898438 209.417969 225.988281 209.417969 C 226.066406 209.417969 226.140625 209.3125 226.140625 209.175781 C 226.140625 209.050781 226.066406 208.929688 225.988281 208.929688 C 225.898438 208.929688 225.820312 209.050781 225.820312 209.175781 Z M 225.820312 209.175781 " fill-opacity="1" fill-rule="nonzero"/><path fill="#ffffff" d="M 147.203125 210.964844 C 146.957031 211.226562 147.113281 211.53125 147.464844 211.484375 C 147.664062 211.453125 147.816406 211.316406 147.816406 211.195312 C 147.816406 210.933594 147.402344 210.78125 147.203125 210.964844 Z M 147.203125 210.964844 " fill-opacity="1" fill-rule="nonzero"/><path fill="#ffffff" d="M 152.878906 211.667969 C 152.878906 211.882812 152.988281 211.992188 153.203125 211.992188 C 153.414062 211.992188 153.523438 211.882812 153.523438 211.667969 C 153.523438 211.453125 153.414062 211.347656 153.203125 211.347656 C 152.988281 211.347656 152.878906 211.453125 152.878906 211.667969 Z M 152.878906 211.667969 " fill-opacity="1" fill-rule="nonzero"/><path fill="#ffffff" d="M 146.851562 215.539062 C 146.683594 215.800781 147.050781 216.105469 147.28125 215.890625 C 147.464844 215.707031 147.339844 215.355469 147.097656 215.355469 C 147.019531 215.355469 146.914062 215.449219 146.851562 215.539062 Z M 146.851562 215.539062 " fill-opacity="1" fill-rule="nonzero"/><path fill="#ffffff" d="M 138.621094 219.960938 C 138.328125 220.085938 138.375 220.453125 138.695312 220.574219 C 139.03125 220.695312 139.292969 220.453125 139.171875 220.117188 C 139.0625 219.855469 138.972656 219.824219 138.621094 219.960938 Z M 138.621094 219.960938 " fill-opacity="1" fill-rule="nonzero"/><path fill="#ffffff" d="M 224.472656 220.4375 C 224.320312 220.574219 224.214844 220.789062 224.214844 220.910156 C 224.214844 221.21875 224.671875 221.628906 225.011719 221.628906 C 225.347656 221.628906 225.820312 221.140625 225.820312 220.804688 C 225.820312 220.207031 224.933594 219.960938 224.472656 220.4375 Z M 224.472656 220.4375 " fill-opacity="1" fill-rule="nonzero"/><path fill="#ffffff" d="M 142.230469 222.289062 C 141.816406 222.53125 141.878906 223.054688 142.351562 223.175781 C 142.828125 223.296875 143.085938 223.144531 143.085938 222.746094 C 143.085938 222.347656 142.597656 222.089844 142.230469 222.289062 Z M 142.230469 222.289062 " fill-opacity="1" fill-rule="nonzero"/><path fill="#ffffff" d="M 155.710938 236.378906 C 155.375 236.761719 155.375 236.945312 155.757812 237.285156 C 156.382812 237.847656 157.273438 237.113281 156.796875 236.441406 C 156.507812 236.011719 156.078125 236 155.710938 236.378906 Z M 155.710938 236.378906 " fill-opacity="1" fill-rule="nonzero"/></svg>