<svg xmlns="http://www.w3.org/2000/svg" xmlns:xlink="http://www.w3.org/1999/xlink" width="500" zoomAndPan="magnify" viewBox="0 0 375 374.999991" height="500" preserveAspectRatio="xMidYMid meet" version="1.0"><defs><clipPath id="1d6b565ea5"><path d="M 80.171875 77.210938 L 294.828125 77.210938 L 294.828125 291.867188 L 80.171875 291.867188 Z M 80.171875 77.210938 " clip-rule="nonzero"/></clipPath><clipPath id="25e2d9c25d"><path d="M 187.5 77.210938 C 128.226562 77.210938 80.171875 125.265625 80.171875 184.539062 C 80.171875 243.8125 128.226562 291.867188 187.5 291.867188 C 246.773438 291.867188 294.828125 243.8125 294.828125 184.539062 C 294.828125 125.265625 246.773438 77.210938 187.5 77.210938 Z M 187.5 77.210938 " clip-rule="nonzero"/></clipPath><linearGradient x1="0.00000126351" gradientTransform="matrix(0.838488, 0, 0, 0.838488, 80.173549, 77.212678)" y1="0" x2="256.000004" gradientUnits="userSpaceOnUse" y2="0" id="b0ed095c6b"><stop stop-opacity="1" stop-color="rgb(100%, 96.899414%, 67.799377%)" offset="0"/><stop stop-opacity="1" stop-color="rgb(100%, 96.77887%, 67.915344%)" offset="0.0078125"/><stop stop-opacity="1" stop-color="rgb(100%, 96.540833%, 68.147278%)" offset="0.015625"/><stop stop-opacity="1" stop-color="rgb(100%, 96.30127%, 68.380737%)" offset="0.0234375"/><stop stop-opacity="1" stop-color="rgb(100%, 96.061707%, 68.614197%)" offset="0.03125"/><stop stop-opacity="1" stop-color="rgb(100%, 95.823669%, 68.84613%)" offset="0.0390625"/><stop stop-opacity="1" stop-color="rgb(100%, 95.584106%, 69.07959%)" offset="0.046875"/><stop stop-opacity="1" stop-color="rgb(100%, 95.344543%, 69.311523%)" offset="0.0546875"/><stop stop-opacity="1" stop-color="rgb(100%, 95.106506%, 69.544983%)" offset="0.0625"/><stop stop-opacity="1" stop-color="rgb(100%, 94.866943%, 69.778442%)" offset="0.0703125"/><stop stop-opacity="1" stop-color="rgb(100%, 94.62738%, 70.010376%)" offset="0.078125"/><stop stop-opacity="1" stop-color="rgb(100%, 94.387817%, 70.243835%)" offset="0.0859375"/><stop stop-opacity="1" stop-color="rgb(100%, 94.14978%, 70.475769%)" offset="0.09375"/><stop stop-opacity="1" stop-color="rgb(100%, 93.910217%, 70.709229%)" offset="0.101563"/><stop stop-opacity="1" stop-color="rgb(100%, 93.670654%, 70.941162%)" offset="0.109375"/><stop stop-opacity="1" stop-color="rgb(100%, 93.432617%, 71.174622%)" offset="0.117188"/><stop stop-opacity="1" stop-color="rgb(100%, 93.193054%, 71.408081%)" offset="0.125"/><stop stop-opacity="1" stop-color="rgb(100%, 92.953491%, 71.640015%)" offset="0.132812"/><stop stop-opacity="1" stop-color="rgb(100%, 92.715454%, 71.873474%)" offset="0.140625"/><stop stop-opacity="1" stop-color="rgb(100%, 92.475891%, 72.105408%)" offset="0.148438"/><stop stop-opacity="1" stop-color="rgb(100%, 92.236328%, 72.338867%)" offset="0.15625"/><stop stop-opacity="1" stop-color="rgb(100%, 91.998291%, 72.570801%)" offset="0.164062"/><stop stop-opacity="1" stop-color="rgb(100%, 91.758728%, 72.80426%)" offset="0.171875"/><stop stop-opacity="1" stop-color="rgb(100%, 91.519165%, 73.03772%)" offset="0.179687"/><stop stop-opacity="1" stop-color="rgb(100%, 91.281128%, 73.269653%)" offset="0.1875"/><stop stop-opacity="1" stop-color="rgb(100%, 91.041565%, 73.503113%)" offset="0.195313"/><stop stop-opacity="1" stop-color="rgb(100%, 90.802002%, 73.735046%)" offset="0.203125"/><stop stop-opacity="1" stop-color="rgb(100%, 90.563965%, 73.968506%)" offset="0.210938"/><stop stop-opacity="1" stop-color="rgb(100%, 90.324402%, 74.200439%)" offset="0.21875"/><stop stop-opacity="1" stop-color="rgb(100%, 90.084839%, 74.433899%)" offset="0.226562"/><stop stop-opacity="1" stop-color="rgb(100%, 89.846802%, 74.667358%)" offset="0.234375"/><stop stop-opacity="1" stop-color="rgb(100%, 89.607239%, 74.899292%)" offset="0.242188"/><stop stop-opacity="1" stop-color="rgb(100%, 89.367676%, 75.132751%)" offset="0.25"/><stop stop-opacity="1" stop-color="rgb(100%, 89.129639%, 75.364685%)" offset="0.257812"/><stop stop-opacity="1" stop-color="rgb(100%, 88.890076%, 75.598145%)" offset="0.265625"/><stop stop-opacity="1" stop-color="rgb(100%, 88.650513%, 75.830078%)" offset="0.273438"/><stop stop-opacity="1" stop-color="rgb(100%, 88.412476%, 76.063538%)" offset="0.28125"/><stop stop-opacity="1" stop-color="rgb(100%, 88.172913%, 76.296997%)" offset="0.289062"/><stop stop-opacity="1" stop-color="rgb(100%, 87.93335%, 76.528931%)" offset="0.296875"/><stop stop-opacity="1" stop-color="rgb(100%, 87.695312%, 76.76239%)" offset="0.304688"/><stop stop-opacity="1" stop-color="rgb(100%, 87.45575%, 76.994324%)" offset="0.3125"/><stop stop-opacity="1" stop-color="rgb(100%, 87.216187%, 77.227783%)" offset="0.320312"/><stop stop-opacity="1" stop-color="rgb(100%, 86.978149%, 77.461243%)" offset="0.328125"/><stop stop-opacity="1" stop-color="rgb(100%, 86.738586%, 77.693176%)" offset="0.335937"/><stop stop-opacity="1" stop-color="rgb(100%, 86.499023%, 77.926636%)" offset="0.34375"/><stop stop-opacity="1" stop-color="rgb(100%, 86.260986%, 78.158569%)" offset="0.351562"/><stop stop-opacity="1" stop-color="rgb(100%, 86.021423%, 78.392029%)" offset="0.359375"/><stop stop-opacity="1" stop-color="rgb(100%, 85.78186%, 78.623962%)" offset="0.367187"/><stop stop-opacity="1" stop-color="rgb(100%, 85.543823%, 78.857422%)" offset="0.375"/><stop stop-opacity="1" stop-color="rgb(100%, 85.30426%, 79.090881%)" offset="0.382813"/><stop stop-opacity="1" stop-color="rgb(100%, 85.064697%, 79.322815%)" offset="0.390625"/><stop stop-opacity="1" stop-color="rgb(100%, 84.82666%, 79.556274%)" offset="0.398438"/><stop stop-opacity="1" stop-color="rgb(100%, 84.587097%, 79.788208%)" offset="0.40625"/><stop stop-opacity="1" stop-color="rgb(100%, 84.347534%, 80.021667%)" offset="0.414063"/><stop stop-opacity="1" stop-color="rgb(100%, 84.109497%, 80.253601%)" offset="0.421875"/><stop stop-opacity="1" stop-color="rgb(100%, 83.869934%, 80.487061%)" offset="0.429688"/><stop stop-opacity="1" stop-color="rgb(100%, 83.630371%, 80.72052%)" offset="0.4375"/><stop stop-opacity="1" stop-color="rgb(100%, 83.392334%, 80.952454%)" offset="0.445312"/><stop stop-opacity="1" stop-color="rgb(100%, 83.152771%, 81.185913%)" offset="0.453125"/><stop stop-opacity="1" stop-color="rgb(100%, 82.913208%, 81.417847%)" offset="0.460938"/><stop stop-opacity="1" stop-color="rgb(100%, 82.675171%, 81.651306%)" offset="0.46875"/><stop stop-opacity="1" stop-color="rgb(100%, 82.435608%, 81.88324%)" offset="0.476562"/><stop stop-opacity="1" stop-color="rgb(100%, 82.196045%, 82.116699%)" offset="0.484375"/><stop stop-opacity="1" stop-color="rgb(100%, 81.958008%, 82.350159%)" offset="0.492188"/><stop stop-opacity="1" stop-color="rgb(100%, 81.718445%, 82.582092%)" offset="0.5"/><stop stop-opacity="1" stop-color="rgb(100%, 81.478882%, 82.815552%)" offset="0.507812"/><stop stop-opacity="1" stop-color="rgb(100%, 81.240845%, 83.047485%)" offset="0.515625"/><stop stop-opacity="1" stop-color="rgb(100%, 81.001282%, 83.280945%)" offset="0.523438"/><stop stop-opacity="1" stop-color="rgb(100%, 80.761719%, 83.514404%)" offset="0.53125"/><stop stop-opacity="1" stop-color="rgb(100%, 80.523682%, 83.746338%)" offset="0.539062"/><stop stop-opacity="1" stop-color="rgb(100%, 80.284119%, 83.979797%)" offset="0.546875"/><stop stop-opacity="1" stop-color="rgb(100%, 80.044556%, 84.211731%)" offset="0.554688"/><stop stop-opacity="1" stop-color="rgb(100%, 79.804993%, 84.44519%)" offset="0.5625"/><stop stop-opacity="1" stop-color="rgb(100%, 79.566956%, 84.677124%)" offset="0.570312"/><stop stop-opacity="1" stop-color="rgb(100%, 79.327393%, 84.910583%)" offset="0.578125"/><stop stop-opacity="1" stop-color="rgb(100%, 79.08783%, 85.144043%)" offset="0.585938"/><stop stop-opacity="1" stop-color="rgb(100%, 78.849792%, 85.375977%)" offset="0.59375"/><stop stop-opacity="1" stop-color="rgb(100%, 78.610229%, 85.609436%)" offset="0.601562"/><stop stop-opacity="1" stop-color="rgb(100%, 78.370667%, 85.84137%)" offset="0.609375"/><stop stop-opacity="1" stop-color="rgb(100%, 78.132629%, 86.074829%)" offset="0.617188"/><stop stop-opacity="1" stop-color="rgb(100%, 77.893066%, 86.306763%)" offset="0.625"/><stop stop-opacity="1" stop-color="rgb(100%, 77.653503%, 86.540222%)" offset="0.632812"/><stop stop-opacity="1" stop-color="rgb(100%, 77.415466%, 86.773682%)" offset="0.640625"/><stop stop-opacity="1" stop-color="rgb(100%, 77.175903%, 87.005615%)" offset="0.648437"/><stop stop-opacity="1" stop-color="rgb(100%, 76.93634%, 87.239075%)" offset="0.65625"/><stop stop-opacity="1" stop-color="rgb(100%, 76.698303%, 87.471008%)" offset="0.664062"/><stop stop-opacity="1" stop-color="rgb(100%, 76.45874%, 87.704468%)" offset="0.671875"/><stop stop-opacity="1" stop-color="rgb(100%, 76.219177%, 87.936401%)" offset="0.679687"/><stop stop-opacity="1" stop-color="rgb(100%, 75.98114%, 88.169861%)" offset="0.6875"/><stop stop-opacity="1" stop-color="rgb(100%, 75.741577%, 88.40332%)" offset="0.695312"/><stop stop-opacity="1" stop-color="rgb(100%, 75.502014%, 88.635254%)" offset="0.703125"/><stop stop-opacity="1" stop-color="rgb(100%, 75.263977%, 88.868713%)" offset="0.710937"/><stop stop-opacity="1" stop-color="rgb(100%, 75.024414%, 89.100647%)" offset="0.71875"/><stop stop-opacity="1" stop-color="rgb(100%, 74.784851%, 89.334106%)" offset="0.726562"/><stop stop-opacity="1" stop-color="rgb(100%, 74.546814%, 89.56604%)" offset="0.734375"/><stop stop-opacity="1" stop-color="rgb(100%, 74.307251%, 89.7995%)" offset="0.742187"/><stop stop-opacity="1" stop-color="rgb(100%, 74.067688%, 90.032959%)" offset="0.75"/><stop stop-opacity="1" stop-color="rgb(100%, 73.829651%, 90.264893%)" offset="0.757813"/><stop stop-opacity="1" stop-color="rgb(100%, 73.590088%, 90.498352%)" offset="0.765625"/><stop stop-opacity="1" stop-color="rgb(100%, 73.350525%, 90.730286%)" offset="0.773438"/><stop stop-opacity="1" stop-color="rgb(100%, 73.112488%, 90.963745%)" offset="0.78125"/><stop stop-opacity="1" stop-color="rgb(100%, 72.872925%, 91.197205%)" offset="0.789063"/><stop stop-opacity="1" stop-color="rgb(100%, 72.633362%, 91.429138%)" offset="0.796875"/><stop stop-opacity="1" stop-color="rgb(100%, 72.395325%, 91.662598%)" offset="0.804688"/><stop stop-opacity="1" stop-color="rgb(100%, 72.155762%, 91.894531%)" offset="0.8125"/><stop stop-opacity="1" stop-color="rgb(100%, 71.916199%, 92.127991%)" offset="0.820313"/><stop stop-opacity="1" stop-color="rgb(100%, 71.678162%, 92.359924%)" offset="0.828125"/><stop stop-opacity="1" stop-color="rgb(100%, 71.438599%, 92.593384%)" offset="0.835938"/><stop stop-opacity="1" stop-color="rgb(100%, 71.199036%, 92.826843%)" offset="0.84375"/><stop stop-opacity="1" stop-color="rgb(100%, 70.960999%, 93.058777%)" offset="0.851563"/><stop stop-opacity="1" stop-color="rgb(100%, 70.721436%, 93.292236%)" offset="0.859375"/><stop stop-opacity="1" stop-color="rgb(100%, 70.481873%, 93.52417%)" offset="0.867188"/><stop stop-opacity="1" stop-color="rgb(100%, 70.243835%, 93.757629%)" offset="0.875"/><stop stop-opacity="1" stop-color="rgb(100%, 70.004272%, 93.989563%)" offset="0.882812"/><stop stop-opacity="1" stop-color="rgb(100%, 69.764709%, 94.223022%)" offset="0.890625"/><stop stop-opacity="1" stop-color="rgb(100%, 69.526672%, 94.456482%)" offset="0.898438"/><stop stop-opacity="1" stop-color="rgb(100%, 69.287109%, 94.688416%)" offset="0.90625"/><stop stop-opacity="1" stop-color="rgb(100%, 69.047546%, 94.921875%)" offset="0.914062"/><stop stop-opacity="1" stop-color="rgb(100%, 68.809509%, 95.153809%)" offset="0.921875"/><stop stop-opacity="1" stop-color="rgb(100%, 68.569946%, 95.387268%)" offset="0.929688"/><stop stop-opacity="1" stop-color="rgb(100%, 68.330383%, 95.619202%)" offset="0.9375"/><stop stop-opacity="1" stop-color="rgb(100%, 68.092346%, 95.852661%)" offset="0.945312"/><stop stop-opacity="1" stop-color="rgb(100%, 67.852783%, 96.086121%)" offset="0.953125"/><stop stop-opacity="1" stop-color="rgb(100%, 67.61322%, 96.318054%)" offset="0.960938"/><stop stop-opacity="1" stop-color="rgb(100%, 67.375183%, 96.551514%)" offset="0.96875"/><stop stop-opacity="1" stop-color="rgb(100%, 67.13562%, 96.783447%)" offset="0.976562"/><stop stop-opacity="1" stop-color="rgb(100%, 66.896057%, 97.016907%)" offset="0.984375"/><stop stop-opacity="1" stop-color="rgb(100%, 66.65802%, 97.24884%)" offset="0.992188"/><stop stop-opacity="1" stop-color="rgb(100%, 66.418457%, 97.4823%)" offset="1"/></linearGradient><clipPath id="3f86e56101"><path d="M 122.847656 127.070312 L 272.78125 127.070312 L 272.78125 241.820312 L 122.847656 241.820312 Z M 122.847656 127.070312 " clip-rule="nonzero"/></clipPath></defs><g clip-path="url(#1d6b565ea5)"><g clip-path="url(#25e2d9c25d)"><path fill="url(#b0ed095c6b)" d="M 80.171875 77.210938 L 80.171875 291.867188 L 294.828125 291.867188 L 294.828125 77.210938 Z M 80.171875 77.210938 " fill-rule="nonzero"/></g></g><path fill="#ffffff" d="M 147.835938 217.027344 L 147.835938 222.027344 L 152.835938 222.027344 L 152.835938 217.027344 Z M 127.84375 182.042969 L 127.84375 187.042969 L 132.84375 187.042969 L 132.84375 182.042969 Z M 127.84375 187.042969 L 127.84375 192.039062 L 132.84375 192.039062 L 132.84375 187.042969 Z M 127.84375 192.039062 L 127.84375 197.039062 L 132.84375 197.039062 L 132.84375 192.039062 Z M 127.84375 197.039062 L 127.84375 202.035156 L 132.84375 202.035156 L 132.84375 197.039062 Z M 137.839844 167.050781 L 132.84375 167.050781 L 132.84375 172.050781 L 137.839844 172.050781 Z M 132.84375 177.046875 L 137.839844 177.046875 L 137.839844 172.050781 L 132.84375 172.050781 Z M 132.84375 177.046875 L 132.84375 182.042969 L 137.839844 182.042969 L 137.839844 177.046875 Z M 132.84375 182.042969 L 132.84375 187.042969 L 137.839844 187.042969 L 137.839844 182.042969 Z M 132.84375 187.042969 L 132.84375 192.039062 L 137.839844 192.039062 L 137.839844 187.042969 Z M 132.84375 192.039062 L 132.84375 197.039062 L 137.839844 197.039062 L 137.839844 192.039062 Z M 132.84375 197.039062 L 132.84375 202.035156 L 137.839844 202.035156 L 137.839844 197.039062 Z M 132.84375 202.035156 L 132.84375 207.03125 L 137.839844 207.03125 L 137.839844 202.035156 Z M 132.84375 207.03125 L 132.84375 212.03125 L 137.839844 212.03125 L 137.839844 207.03125 Z M 132.84375 212.03125 L 132.84375 217.027344 L 137.839844 217.027344 L 137.839844 212.03125 Z M 142.839844 162.054688 L 142.839844 157.054688 L 137.839844 157.054688 L 137.839844 162.054688 Z M 142.839844 167.050781 L 142.839844 162.054688 L 137.839844 162.054688 L 137.839844 167.050781 Z M 142.839844 172.050781 L 142.839844 167.050781 L 137.839844 167.050781 L 137.839844 172.050781 Z M 142.839844 177.046875 L 142.839844 172.050781 L 137.839844 172.050781 L 137.839844 177.046875 Z M 137.839844 177.046875 L 137.839844 182.042969 L 142.839844 182.042969 L 142.839844 177.046875 Z M 137.839844 182.042969 L 137.839844 187.042969 L 142.839844 187.042969 L 142.839844 182.042969 Z M 137.839844 187.042969 L 137.839844 192.039062 L 142.839844 192.039062 L 142.839844 187.042969 Z M 137.839844 192.039062 L 137.839844 197.039062 L 142.839844 197.039062 L 142.839844 192.039062 Z M 137.839844 197.039062 L 137.839844 202.035156 L 142.839844 202.035156 L 142.839844 197.039062 Z M 137.839844 202.035156 L 137.839844 207.03125 L 142.839844 207.03125 L 142.839844 202.035156 Z M 137.839844 207.03125 L 137.839844 212.03125 L 142.839844 212.03125 L 142.839844 207.03125 Z M 137.839844 212.03125 L 137.839844 217.027344 L 142.839844 217.027344 L 142.839844 212.03125 Z M 137.839844 217.027344 L 137.839844 222.027344 L 142.839844 222.027344 L 142.839844 217.027344 Z M 147.835938 152.058594 L 147.835938 147.058594 L 142.839844 147.058594 L 142.839844 152.058594 Z M 147.835938 157.054688 L 147.835938 152.058594 L 142.839844 152.058594 L 142.839844 157.054688 Z M 147.835938 162.054688 L 147.835938 157.054688 L 142.839844 157.054688 L 142.839844 162.054688 Z M 147.835938 167.050781 L 147.835938 162.054688 L 142.839844 162.054688 L 142.839844 167.050781 Z M 147.835938 172.050781 L 147.835938 167.050781 L 142.839844 167.050781 L 142.839844 172.050781 Z M 147.835938 177.046875 L 147.835938 172.050781 L 142.839844 172.050781 L 142.839844 177.046875 Z M 142.839844 177.046875 L 142.839844 182.042969 L 147.835938 182.042969 L 147.835938 177.046875 Z M 142.839844 182.042969 L 142.839844 187.042969 L 147.835938 187.042969 L 147.835938 182.042969 Z M 142.839844 187.042969 L 142.839844 192.039062 L 147.835938 192.039062 L 147.835938 187.042969 Z M 142.839844 192.039062 L 142.839844 197.039062 L 147.835938 197.039062 L 147.835938 192.039062 Z M 142.839844 197.039062 L 142.839844 202.035156 L 147.835938 202.035156 L 147.835938 197.039062 Z M 142.839844 202.035156 L 142.839844 207.03125 L 147.835938 207.03125 L 147.835938 202.035156 Z M 142.839844 207.03125 L 142.839844 212.03125 L 147.835938 212.03125 L 147.835938 207.03125 Z M 142.839844 212.03125 L 142.839844 217.027344 L 147.835938 217.027344 L 147.835938 212.03125 Z M 142.839844 217.027344 L 142.839844 222.027344 L 147.835938 222.027344 L 147.835938 217.027344 Z M 142.839844 222.027344 L 142.839844 227.023438 L 147.835938 227.023438 L 147.835938 222.027344 Z M 152.835938 137.066406 L 147.835938 137.066406 L 147.835938 142.0625 L 152.835938 142.0625 Z M 152.835938 142.0625 L 147.835938 142.0625 L 147.835938 147.058594 L 152.835938 147.058594 Z M 152.835938 147.058594 L 147.835938 147.058594 L 147.835938 152.058594 L 152.835938 152.058594 Z M 152.835938 152.058594 L 147.835938 152.058594 L 147.835938 157.054688 L 152.835938 157.054688 Z M 152.835938 157.054688 L 147.835938 157.054688 L 147.835938 162.054688 L 152.835938 162.054688 Z M 152.835938 162.054688 L 147.835938 162.054688 L 147.835938 167.050781 L 152.835938 167.050781 Z M 152.835938 167.050781 L 147.835938 167.050781 L 147.835938 172.050781 L 152.835938 172.050781 Z M 147.835938 177.046875 L 152.835938 177.046875 L 152.835938 172.050781 L 147.835938 172.050781 Z M 147.835938 177.046875 L 147.835938 182.042969 L 152.835938 182.042969 L 152.835938 177.046875 Z M 147.835938 182.042969 L 147.835938 187.042969 L 152.835938 187.042969 L 152.835938 182.042969 Z M 147.835938 187.042969 L 147.835938 192.039062 L 152.835938 192.039062 L 152.835938 187.042969 Z M 147.835938 192.039062 L 147.835938 197.039062 L 152.835938 197.039062 L 152.835938 192.039062 Z M 147.835938 197.039062 L 147.835938 202.035156 L 152.835938 202.035156 L 152.835938 197.039062 Z M 147.835938 202.035156 L 147.835938 207.03125 L 152.835938 207.03125 L 152.835938 202.035156 Z M 147.835938 207.03125 L 147.835938 212.03125 L 152.835938 212.03125 L 152.835938 207.03125 Z M 147.835938 212.03125 L 147.835938 217.027344 L 152.835938 217.027344 L 152.835938 212.03125 Z M 157.832031 137.066406 L 157.832031 132.066406 L 152.835938 132.066406 L 152.835938 137.066406 Z M 157.832031 142.0625 L 157.832031 137.066406 L 152.835938 137.066406 L 152.835938 142.0625 Z M 157.832031 147.058594 L 157.832031 142.0625 L 152.835938 142.0625 L 152.835938 147.058594 Z M 157.832031 152.058594 L 157.832031 147.058594 L 152.835938 147.058594 L 152.835938 152.058594 Z M 157.832031 157.054688 L 157.832031 152.058594 L 152.835938 152.058594 L 152.835938 157.054688 Z M 157.832031 162.054688 L 157.832031 157.054688 L 152.835938 157.054688 L 152.835938 162.054688 Z M 157.832031 167.050781 L 157.832031 162.054688 L 152.835938 162.054688 L 152.835938 167.050781 Z M 157.832031 172.050781 L 157.832031 167.050781 L 152.835938 167.050781 L 152.835938 172.050781 Z M 157.832031 177.046875 L 157.832031 172.050781 L 152.835938 172.050781 L 152.835938 177.046875 Z M 152.835938 177.046875 L 152.835938 182.042969 L 157.832031 182.042969 L 157.832031 177.046875 Z M 152.835938 182.042969 L 152.835938 187.042969 L 157.832031 187.042969 L 157.832031 182.042969 Z M 152.835938 187.042969 L 152.835938 192.039062 L 157.832031 192.039062 L 157.832031 187.042969 Z M 152.835938 192.039062 L 152.835938 197.039062 L 157.832031 197.039062 L 157.832031 192.039062 Z M 152.835938 197.039062 L 152.835938 202.035156 L 157.832031 202.035156 L 157.832031 197.039062 Z M 152.835938 202.035156 L 152.835938 207.03125 L 157.832031 207.03125 L 157.832031 202.035156 Z M 152.835938 207.03125 L 152.835938 212.03125 L 157.832031 212.03125 L 157.832031 207.03125 Z M 152.835938 212.03125 L 152.835938 217.027344 L 157.832031 217.027344 L 157.832031 212.03125 Z M 152.835938 217.027344 L 152.835938 222.027344 L 157.832031 222.027344 L 157.832031 217.027344 Z M 152.835938 222.027344 L 152.835938 227.023438 L 157.832031 227.023438 L 157.832031 222.027344 Z M 152.835938 227.023438 L 152.835938 232.019531 L 157.832031 232.019531 L 157.832031 227.023438 Z M 152.835938 232.019531 L 152.835938 237.019531 L 157.832031 237.019531 L 157.832031 232.019531 Z M 157.832031 137.066406 L 157.832031 142.0625 L 162.828125 142.0625 L 162.828125 137.066406 Z M 157.832031 142.0625 L 157.832031 147.058594 L 162.828125 147.058594 L 162.828125 142.0625 Z M 157.832031 147.058594 L 157.832031 152.058594 L 162.828125 152.058594 L 162.828125 147.058594 Z M 157.832031 152.058594 L 157.832031 157.054688 L 162.828125 157.054688 L 162.828125 152.058594 Z M 157.832031 157.054688 L 157.832031 162.054688 L 162.828125 162.054688 L 162.828125 157.054688 Z M 157.832031 167.050781 L 157.832031 172.050781 L 162.828125 172.050781 L 162.828125 167.050781 Z M 157.832031 172.050781 L 157.832031 177.046875 L 162.828125 177.046875 L 162.828125 172.050781 Z M 157.832031 177.046875 L 157.832031 182.042969 L 162.828125 182.042969 L 162.828125 177.046875 Z M 157.832031 182.042969 L 157.832031 187.042969 L 162.828125 187.042969 L 162.828125 182.042969 Z M 157.832031 187.042969 L 157.832031 192.039062 L 162.828125 192.039062 L 162.828125 187.042969 Z M 157.832031 192.039062 L 157.832031 197.039062 L 162.828125 197.039062 L 162.828125 192.039062 Z M 157.832031 197.039062 L 157.832031 202.035156 L 162.828125 202.035156 L 162.828125 197.039062 Z M 157.832031 202.035156 L 157.832031 207.03125 L 162.828125 207.03125 L 162.828125 202.035156 Z M 157.832031 207.03125 L 157.832031 212.03125 L 162.828125 212.03125 L 162.828125 207.03125 Z M 157.832031 212.03125 L 157.832031 217.027344 L 162.828125 217.027344 L 162.828125 212.03125 Z M 157.832031 217.027344 L 157.832031 222.027344 L 162.828125 222.027344 L 162.828125 217.027344 Z M 157.832031 222.027344 L 157.832031 227.023438 L 162.828125 227.023438 L 162.828125 222.027344 Z M 157.832031 227.023438 L 157.832031 232.019531 L 162.828125 232.019531 L 162.828125 227.023438 Z M 157.832031 232.019531 L 157.832031 237.019531 L 162.828125 237.019531 L 162.828125 232.019531 Z M 162.828125 142.0625 L 162.828125 147.058594 L 167.828125 147.058594 L 167.828125 142.0625 Z M 162.828125 147.058594 L 162.828125 152.058594 L 167.828125 152.058594 L 167.828125 147.058594 Z M 162.828125 152.058594 L 162.828125 157.054688 L 167.828125 157.054688 L 167.828125 152.058594 Z M 162.828125 157.054688 L 162.828125 162.054688 L 167.828125 162.054688 L 167.828125 157.054688 Z M 162.828125 162.054688 L 162.828125 167.050781 L 167.828125 167.050781 L 167.828125 162.054688 Z M 162.828125 167.050781 L 162.828125 172.050781 L 167.828125 172.050781 L 167.828125 167.050781 Z M 162.828125 172.050781 L 162.828125 177.046875 L 167.828125 177.046875 L 167.828125 172.050781 Z M 162.828125 177.046875 L 162.828125 182.042969 L 167.828125 182.042969 L 167.828125 177.046875 Z M 162.828125 182.042969 L 162.828125 187.042969 L 167.828125 187.042969 L 167.828125 182.042969 Z M 162.828125 187.042969 L 162.828125 192.039062 L 167.828125 192.039062 L 167.828125 187.042969 Z M 162.828125 192.039062 L 162.828125 197.039062 L 167.828125 197.039062 L 167.828125 192.039062 Z M 162.828125 197.039062 L 162.828125 202.035156 L 167.828125 202.035156 L 167.828125 197.039062 Z M 162.828125 202.035156 L 162.828125 207.03125 L 167.828125 207.03125 L 167.828125 202.035156 Z M 162.828125 207.03125 L 162.828125 212.03125 L 167.828125 212.03125 L 167.828125 207.03125 Z M 162.828125 212.03125 L 162.828125 217.027344 L 167.828125 217.027344 L 167.828125 212.03125 Z M 162.828125 217.027344 L 162.828125 222.027344 L 167.828125 222.027344 L 167.828125 217.027344 Z M 162.828125 222.027344 L 162.828125 227.023438 L 167.828125 227.023438 L 167.828125 222.027344 Z M 162.828125 227.023438 L 162.828125 232.019531 L 167.828125 232.019531 L 167.828125 227.023438 Z M 162.828125 232.019531 L 162.828125 237.019531 L 167.828125 237.019531 L 167.828125 232.019531 Z M 167.828125 142.0625 L 167.828125 147.058594 L 172.824219 147.058594 L 172.824219 142.0625 Z M 167.828125 147.058594 L 167.828125 152.058594 L 172.824219 152.058594 L 172.824219 147.058594 Z M 167.828125 152.058594 L 167.828125 157.054688 L 172.824219 157.054688 L 172.824219 152.058594 Z M 167.828125 157.054688 L 167.828125 162.054688 L 172.824219 162.054688 L 172.824219 157.054688 Z M 167.828125 162.054688 L 167.828125 167.050781 L 172.824219 167.050781 L 172.824219 162.054688 Z M 167.828125 167.050781 L 167.828125 172.050781 L 172.824219 172.050781 L 172.824219 167.050781 Z M 167.828125 177.046875 L 167.828125 182.042969 L 172.824219 182.042969 L 172.824219 177.046875 Z M 167.828125 182.042969 L 167.828125 187.042969 L 172.824219 187.042969 L 172.824219 182.042969 Z M 167.828125 187.042969 L 167.828125 192.039062 L 172.824219 192.039062 L 172.824219 187.042969 Z M 167.828125 192.039062 L 167.828125 197.039062 L 172.824219 197.039062 L 172.824219 192.039062 Z M 167.828125 197.039062 L 167.828125 202.035156 L 172.824219 202.035156 L 172.824219 197.039062 Z M 167.828125 202.035156 L 167.828125 207.03125 L 172.824219 207.03125 L 172.824219 202.035156 Z M 167.828125 207.03125 L 167.828125 212.03125 L 172.824219 212.03125 L 172.824219 207.03125 Z M 167.828125 212.03125 L 167.828125 217.027344 L 172.824219 217.027344 L 172.824219 212.03125 Z M 167.828125 217.027344 L 167.828125 222.027344 L 172.824219 222.027344 L 172.824219 217.027344 Z M 172.824219 142.0625 L 172.824219 147.058594 L 177.824219 147.058594 L 177.824219 142.0625 Z M 172.824219 147.058594 L 172.824219 152.058594 L 177.824219 152.058594 L 177.824219 147.058594 Z M 172.824219 152.058594 L 172.824219 157.054688 L 177.824219 157.054688 L 177.824219 152.058594 Z M 172.824219 157.054688 L 172.824219 162.054688 L 177.824219 162.054688 L 177.824219 157.054688 Z M 172.824219 162.054688 L 172.824219 167.050781 L 177.824219 167.050781 L 177.824219 162.054688 Z M 172.824219 167.050781 L 172.824219 172.050781 L 177.824219 172.050781 L 177.824219 167.050781 Z M 172.824219 182.042969 L 172.824219 187.042969 L 177.824219 187.042969 L 177.824219 182.042969 Z M 172.824219 187.042969 L 172.824219 192.039062 L 177.824219 192.039062 L 177.824219 187.042969 Z M 172.824219 192.039062 L 172.824219 197.039062 L 177.824219 197.039062 L 177.824219 192.039062 Z M 172.824219 197.039062 L 172.824219 202.035156 L 177.824219 202.035156 L 177.824219 197.039062 Z M 172.824219 202.035156 L 172.824219 207.03125 L 177.824219 207.03125 L 177.824219 202.035156 Z M 172.824219 207.03125 L 172.824219 212.03125 L 177.824219 212.03125 L 177.824219 207.03125 Z M 172.824219 212.03125 L 172.824219 217.027344 L 177.824219 217.027344 L 177.824219 212.03125 Z M 172.824219 217.027344 L 172.824219 222.027344 L 177.824219 222.027344 L 177.824219 217.027344 Z M 172.824219 222.027344 L 172.824219 227.023438 L 177.824219 227.023438 L 177.824219 222.027344 Z M 177.824219 142.0625 L 177.824219 147.058594 L 182.820312 147.058594 L 182.820312 142.0625 Z M 177.824219 147.058594 L 177.824219 152.058594 L 182.820312 152.058594 L 182.820312 147.058594 Z M 177.824219 152.058594 L 177.824219 157.054688 L 182.820312 157.054688 L 182.820312 152.058594 Z M 177.824219 157.054688 L 177.824219 162.054688 L 182.820312 162.054688 L 182.820312 157.054688 Z M 177.824219 162.054688 L 177.824219 167.050781 L 182.820312 167.050781 L 182.820312 162.054688 Z M 177.824219 167.050781 L 177.824219 172.050781 L 182.820312 172.050781 L 182.820312 167.050781 Z M 177.824219 177.046875 L 177.824219 182.042969 L 182.820312 182.042969 L 182.820312 177.046875 Z M 177.824219 182.042969 L 177.824219 187.042969 L 182.820312 187.042969 L 182.820312 182.042969 Z M 177.824219 187.042969 L 177.824219 192.039062 L 182.820312 192.039062 L 182.820312 187.042969 Z M 177.824219 192.039062 L 177.824219 197.039062 L 182.820312 197.039062 L 182.820312 192.039062 Z M 177.824219 197.039062 L 177.824219 202.035156 L 182.820312 202.035156 L 182.820312 197.039062 Z M 177.824219 202.035156 L 177.824219 207.03125 L 182.820312 207.03125 L 182.820312 202.035156 Z M 177.824219 207.03125 L 177.824219 212.03125 L 182.820312 212.03125 L 182.820312 207.03125 Z M 177.824219 212.03125 L 177.824219 217.027344 L 182.820312 217.027344 L 182.820312 212.03125 Z M 177.824219 217.027344 L 177.824219 222.027344 L 182.820312 222.027344 L 182.820312 217.027344 Z M 182.820312 142.0625 L 182.820312 147.058594 L 187.820312 147.058594 L 187.820312 142.0625 Z M 182.820312 147.058594 L 182.820312 152.058594 L 187.820312 152.058594 L 187.820312 147.058594 Z M 182.820312 152.058594 L 182.820312 157.054688 L 187.820312 157.054688 L 187.820312 152.058594 Z M 182.820312 157.054688 L 182.820312 162.054688 L 187.820312 162.054688 L 187.820312 157.054688 Z M 182.820312 162.054688 L 182.820312 167.050781 L 187.820312 167.050781 L 187.820312 162.054688 Z M 182.820312 167.050781 L 182.820312 172.050781 L 187.820312 172.050781 L 187.820312 167.050781 Z M 182.820312 172.050781 L 182.820312 177.046875 L 187.820312 177.046875 L 187.820312 172.050781 Z M 182.820312 177.046875 L 182.820312 182.042969 L 187.820312 182.042969 L 187.820312 177.046875 Z M 182.820312 182.042969 L 182.820312 187.042969 L 187.820312 187.042969 L 187.820312 182.042969 Z M 182.820312 187.042969 L 182.820312 192.039062 L 187.820312 192.039062 L 187.820312 187.042969 Z M 182.820312 192.039062 L 182.820312 197.039062 L 187.820312 197.039062 L 187.820312 192.039062 Z M 182.820312 197.039062 L 182.820312 202.035156 L 187.820312 202.035156 L 187.820312 197.039062 Z M 182.820312 202.035156 L 182.820312 207.03125 L 187.820312 207.03125 L 187.820312 202.035156 Z M 182.820312 207.03125 L 182.820312 212.03125 L 187.820312 212.03125 L 187.820312 207.03125 Z M 182.820312 212.03125 L 182.820312 217.027344 L 187.820312 217.027344 L 187.820312 212.03125 Z M 182.820312 217.027344 L 182.820312 222.027344 L 187.820312 222.027344 L 187.820312 217.027344 Z M 182.820312 222.027344 L 182.820312 227.023438 L 187.820312 227.023438 L 187.820312 222.027344 Z M 182.820312 227.023438 L 182.820312 232.019531 L 187.820312 232.019531 L 187.820312 227.023438 Z M 182.820312 232.019531 L 182.820312 237.019531 L 187.820312 237.019531 L 187.820312 232.019531 Z M 187.820312 137.066406 L 187.820312 142.0625 L 192.816406 142.0625 L 192.816406 137.066406 Z M 187.820312 142.0625 L 187.820312 147.058594 L 192.816406 147.058594 L 192.816406 142.0625 Z M 187.820312 147.058594 L 187.820312 152.058594 L 192.816406 152.058594 L 192.816406 147.058594 Z M 187.820312 152.058594 L 187.820312 157.054688 L 192.816406 157.054688 L 192.816406 152.058594 Z M 187.820312 157.054688 L 187.820312 162.054688 L 192.816406 162.054688 L 192.816406 157.054688 Z M 187.820312 167.050781 L 187.820312 172.050781 L 192.816406 172.050781 L 192.816406 167.050781 Z M 187.820312 172.050781 L 187.820312 177.046875 L 192.816406 177.046875 L 192.816406 172.050781 Z M 187.820312 177.046875 L 187.820312 182.042969 L 192.816406 182.042969 L 192.816406 177.046875 Z M 187.820312 182.042969 L 187.820312 187.042969 L 192.816406 187.042969 L 192.816406 182.042969 Z M 187.820312 187.042969 L 187.820312 192.039062 L 192.816406 192.039062 L 192.816406 187.042969 Z M 187.820312 192.039062 L 187.820312 197.039062 L 192.816406 197.039062 L 192.816406 192.039062 Z M 187.820312 197.039062 L 187.820312 202.035156 L 192.816406 202.035156 L 192.816406 197.039062 Z M 187.820312 202.035156 L 187.820312 207.03125 L 192.816406 207.03125 L 192.816406 202.035156 Z M 187.820312 207.03125 L 187.820312 212.03125 L 192.816406 212.03125 L 192.816406 207.03125 Z M 187.820312 212.03125 L 187.820312 217.027344 L 192.816406 217.027344 L 192.816406 212.03125 Z M 187.820312 217.027344 L 187.820312 222.027344 L 192.816406 222.027344 L 192.816406 217.027344 Z M 187.820312 222.027344 L 187.820312 227.023438 L 192.816406 227.023438 L 192.816406 222.027344 Z M 187.820312 227.023438 L 187.820312 232.019531 L 192.816406 232.019531 L 192.816406 227.023438 Z M 187.820312 232.019531 L 187.820312 237.019531 L 192.816406 237.019531 L 192.816406 232.019531 Z M 192.816406 132.066406 L 192.816406 137.066406 L 197.8125 137.066406 L 197.8125 132.066406 Z M 192.816406 137.066406 L 192.816406 142.0625 L 197.8125 142.0625 L 197.8125 137.066406 Z M 192.816406 142.0625 L 192.816406 147.058594 L 197.8125 147.058594 L 197.8125 142.0625 Z M 192.816406 147.058594 L 192.816406 152.058594 L 197.8125 152.058594 L 197.8125 147.058594 Z M 192.816406 152.058594 L 192.816406 157.054688 L 197.8125 157.054688 L 197.8125 152.058594 Z M 192.816406 157.054688 L 192.816406 162.054688 L 197.8125 162.054688 L 197.8125 157.054688 Z M 192.816406 162.054688 L 192.816406 167.050781 L 197.8125 167.050781 L 197.8125 162.054688 Z M 192.816406 167.050781 L 192.816406 172.050781 L 197.8125 172.050781 L 197.8125 167.050781 Z M 192.816406 172.050781 L 192.816406 177.046875 L 197.8125 177.046875 L 197.8125 172.050781 Z M 192.816406 177.046875 L 192.816406 182.042969 L 197.8125 182.042969 L 197.8125 177.046875 Z M 192.816406 182.042969 L 192.816406 187.042969 L 197.8125 187.042969 L 197.8125 182.042969 Z M 192.816406 187.042969 L 192.816406 192.039062 L 197.8125 192.039062 L 197.8125 187.042969 Z M 192.816406 192.039062 L 192.816406 197.039062 L 197.8125 197.039062 L 197.8125 192.039062 Z M 192.816406 197.039062 L 192.816406 202.035156 L 197.8125 202.035156 L 197.8125 197.039062 Z M 192.816406 202.035156 L 192.816406 207.03125 L 197.8125 207.03125 L 197.8125 202.035156 Z M 192.816406 207.03125 L 192.816406 212.03125 L 197.8125 212.03125 L 197.8125 207.03125 Z M 192.816406 212.03125 L 192.816406 217.027344 L 197.8125 217.027344 L 197.8125 212.03125 Z M 192.816406 217.027344 L 192.816406 222.027344 L 197.8125 222.027344 L 197.8125 217.027344 Z M 192.816406 222.027344 L 192.816406 227.023438 L 197.8125 227.023438 L 197.8125 222.027344 Z M 192.816406 227.023438 L 192.816406 232.019531 L 197.8125 232.019531 L 197.8125 227.023438 Z M 192.816406 232.019531 L 192.816406 237.019531 L 197.8125 237.019531 L 197.8125 232.019531 Z M 197.8125 137.066406 L 197.8125 142.0625 L 202.8125 142.0625 L 202.8125 137.066406 Z M 197.8125 142.0625 L 197.8125 147.058594 L 202.8125 147.058594 L 202.8125 142.0625 Z M 197.8125 147.058594 L 197.8125 152.058594 L 202.8125 152.058594 L 202.8125 147.058594 Z M 197.8125 152.058594 L 197.8125 157.054688 L 202.8125 157.054688 L 202.8125 152.058594 Z M 197.8125 157.054688 L 197.8125 162.054688 L 202.8125 162.054688 L 202.8125 157.054688 Z M 197.8125 162.054688 L 197.8125 167.050781 L 202.8125 167.050781 L 202.8125 162.054688 Z M 197.8125 167.050781 L 197.8125 172.050781 L 202.8125 172.050781 L 202.8125 167.050781 Z M 197.8125 172.050781 L 197.8125 177.046875 L 202.8125 177.046875 L 202.8125 172.050781 Z M 197.8125 177.046875 L 197.8125 182.042969 L 202.8125 182.042969 L 202.8125 177.046875 Z M 197.8125 182.042969 L 197.8125 187.042969 L 202.8125 187.042969 L 202.8125 182.042969 Z M 197.8125 187.042969 L 197.8125 192.039062 L 202.8125 192.039062 L 202.8125 187.042969 Z M 197.8125 192.039062 L 197.8125 197.039062 L 202.8125 197.039062 L 202.8125 192.039062 Z M 197.8125 197.039062 L 197.8125 202.035156 L 202.8125 202.035156 L 202.8125 197.039062 Z M 197.8125 202.035156 L 197.8125 207.03125 L 202.8125 207.03125 L 202.8125 202.035156 Z M 197.8125 207.03125 L 197.8125 212.03125 L 202.8125 212.03125 L 202.8125 207.03125 Z M 197.8125 212.03125 L 197.8125 217.027344 L 202.8125 217.027344 L 202.8125 212.03125 Z M 197.8125 217.027344 L 197.8125 222.027344 L 202.8125 222.027344 L 202.8125 217.027344 Z M 202.8125 147.058594 L 202.8125 152.058594 L 207.808594 152.058594 L 207.808594 147.058594 Z M 202.8125 152.058594 L 202.8125 157.054688 L 207.808594 157.054688 L 207.808594 152.058594 Z M 202.8125 157.054688 L 202.8125 162.054688 L 207.808594 162.054688 L 207.808594 157.054688 Z M 202.8125 162.054688 L 202.8125 167.050781 L 207.808594 167.050781 L 207.808594 162.054688 Z M 202.8125 167.050781 L 202.8125 172.050781 L 207.808594 172.050781 L 207.808594 167.050781 Z M 202.8125 172.050781 L 202.8125 177.046875 L 207.808594 177.046875 L 207.808594 172.050781 Z M 202.8125 177.046875 L 202.8125 182.042969 L 207.808594 182.042969 L 207.808594 177.046875 Z M 202.8125 182.042969 L 202.8125 187.042969 L 207.808594 187.042969 L 207.808594 182.042969 Z M 202.8125 187.042969 L 202.8125 192.039062 L 207.808594 192.039062 L 207.808594 187.042969 Z M 202.8125 192.039062 L 202.8125 197.039062 L 207.808594 197.039062 L 207.808594 192.039062 Z M 202.8125 197.039062 L 202.8125 202.035156 L 207.808594 202.035156 L 207.808594 197.039062 Z M 202.8125 202.035156 L 202.8125 207.03125 L 207.808594 207.03125 L 207.808594 202.035156 Z M 202.8125 207.03125 L 202.8125 212.03125 L 207.808594 212.03125 L 207.808594 207.03125 Z M 202.8125 212.03125 L 202.8125 217.027344 L 207.808594 217.027344 L 207.808594 212.03125 Z M 202.8125 217.027344 L 202.8125 222.027344 L 207.808594 222.027344 L 207.808594 217.027344 Z M 202.8125 222.027344 L 202.8125 227.023438 L 207.808594 227.023438 L 207.808594 222.027344 Z M 207.808594 157.054688 L 207.808594 162.054688 L 212.808594 162.054688 L 212.808594 157.054688 Z M 207.808594 162.054688 L 207.808594 167.050781 L 212.808594 167.050781 L 212.808594 162.054688 Z M 207.808594 167.050781 L 207.808594 172.050781 L 212.808594 172.050781 L 212.808594 167.050781 Z M 207.808594 172.050781 L 207.808594 177.046875 L 212.808594 177.046875 L 212.808594 172.050781 Z M 207.808594 177.046875 L 207.808594 182.042969 L 212.808594 182.042969 L 212.808594 177.046875 Z M 207.808594 182.042969 L 207.808594 187.042969 L 212.808594 187.042969 L 212.808594 182.042969 Z M 207.808594 187.042969 L 207.808594 192.039062 L 212.808594 192.039062 L 212.808594 187.042969 Z M 207.808594 192.039062 L 207.808594 197.039062 L 212.808594 197.039062 L 212.808594 192.039062 Z M 207.808594 197.039062 L 207.808594 202.035156 L 212.808594 202.035156 L 212.808594 197.039062 Z M 207.808594 202.035156 L 207.808594 207.03125 L 212.808594 207.03125 L 212.808594 202.035156 Z M 207.808594 207.03125 L 207.808594 212.03125 L 212.808594 212.03125 L 212.808594 207.03125 Z M 207.808594 212.03125 L 207.808594 217.027344 L 212.808594 217.027344 L 212.808594 212.03125 Z M 207.808594 217.027344 L 207.808594 222.027344 L 212.808594 222.027344 L 212.808594 217.027344 Z M 212.808594 167.050781 L 212.808594 172.050781 L 217.804688 172.050781 L 217.804688 167.050781 Z M 212.808594 172.050781 L 212.808594 177.046875 L 217.804688 177.046875 L 217.804688 172.050781 Z M 212.808594 177.046875 L 212.808594 182.042969 L 217.804688 182.042969 L 217.804688 177.046875 Z M 212.808594 182.042969 L 212.808594 187.042969 L 217.804688 187.042969 L 217.804688 182.042969 Z M 212.808594 187.042969 L 212.808594 192.039062 L 217.804688 192.039062 L 217.804688 187.042969 Z M 212.808594 192.039062 L 212.808594 197.039062 L 217.804688 197.039062 L 217.804688 192.039062 Z M 212.808594 197.039062 L 212.808594 202.035156 L 217.804688 202.035156 L 217.804688 197.039062 Z M 212.808594 202.035156 L 212.808594 207.03125 L 217.804688 207.03125 L 217.804688 202.035156 Z M 212.808594 207.03125 L 212.808594 212.03125 L 217.804688 212.03125 L 217.804688 207.03125 Z M 212.808594 212.03125 L 212.808594 217.027344 L 217.804688 217.027344 L 217.804688 212.03125 Z M 212.808594 222.027344 L 212.808594 227.023438 L 217.804688 227.023438 L 217.804688 222.027344 Z M 217.804688 182.042969 L 217.804688 187.042969 L 222.800781 187.042969 L 222.800781 182.042969 Z M 217.804688 187.042969 L 217.804688 192.039062 L 222.800781 192.039062 L 222.800781 187.042969 Z M 217.804688 192.039062 L 217.804688 197.039062 L 222.800781 197.039062 L 222.800781 192.039062 Z M 217.804688 197.039062 L 217.804688 202.035156 L 222.800781 202.035156 L 222.800781 197.039062 Z M 217.804688 217.027344 L 217.804688 222.027344 L 222.800781 222.027344 L 222.800781 217.027344 Z M 217.804688 222.027344 L 217.804688 227.023438 L 222.800781 227.023438 L 222.800781 222.027344 Z M 222.800781 222.027344 L 222.800781 227.023438 L 227.800781 227.023438 L 227.800781 222.027344 Z M 227.800781 222.027344 L 227.800781 227.023438 L 232.796875 227.023438 L 232.796875 222.027344 Z M 232.796875 222.027344 L 232.796875 227.023438 L 237.796875 227.023438 L 237.796875 222.027344 Z M 237.796875 172.050781 L 237.796875 177.046875 L 242.792969 177.046875 L 242.792969 172.050781 Z M 237.796875 177.046875 L 237.796875 182.042969 L 242.792969 182.042969 L 242.792969 177.046875 Z M 237.796875 182.042969 L 237.796875 187.042969 L 242.792969 187.042969 L 242.792969 182.042969 Z M 237.796875 222.027344 L 237.796875 227.023438 L 242.792969 227.023438 L 242.792969 222.027344 Z M 242.792969 167.050781 L 242.792969 172.050781 L 247.789062 172.050781 L 247.789062 167.050781 Z M 242.792969 172.050781 L 242.792969 177.046875 L 247.789062 177.046875 L 247.789062 172.050781 Z M 242.792969 177.046875 L 242.792969 182.042969 L 247.789062 182.042969 L 247.789062 177.046875 Z M 242.792969 182.042969 L 242.792969 187.042969 L 247.789062 187.042969 L 247.789062 182.042969 Z M 242.792969 187.042969 L 242.792969 192.039062 L 247.789062 192.039062 L 247.789062 187.042969 Z M 242.792969 217.027344 L 242.792969 222.027344 L 247.789062 222.027344 L 247.789062 217.027344 Z M 242.792969 222.027344 L 242.792969 227.023438 L 247.789062 227.023438 L 247.789062 222.027344 Z M 247.789062 167.050781 L 247.789062 172.050781 L 252.789062 172.050781 L 252.789062 167.050781 Z M 247.789062 172.050781 L 247.789062 177.046875 L 252.789062 177.046875 L 252.789062 172.050781 Z M 247.789062 177.046875 L 247.789062 182.042969 L 252.789062 182.042969 L 252.789062 177.046875 Z M 247.789062 182.042969 L 247.789062 187.042969 L 252.789062 187.042969 L 252.789062 182.042969 Z M 247.789062 187.042969 L 247.789062 192.039062 L 252.789062 192.039062 L 252.789062 187.042969 Z M 247.789062 212.03125 L 247.789062 217.027344 L 252.789062 217.027344 L 252.789062 212.03125 Z M 247.789062 217.027344 L 247.789062 222.027344 L 252.789062 222.027344 L 252.789062 217.027344 Z M 252.789062 167.050781 L 252.789062 172.050781 L 257.785156 172.050781 L 257.785156 167.050781 Z M 252.789062 172.050781 L 252.789062 177.046875 L 257.785156 177.046875 L 257.785156 172.050781 Z M 252.789062 177.046875 L 252.789062 182.042969 L 257.785156 182.042969 L 257.785156 177.046875 Z M 252.789062 182.042969 L 252.789062 187.042969 L 257.785156 187.042969 L 257.785156 182.042969 Z M 252.789062 187.042969 L 252.789062 192.039062 L 257.785156 192.039062 L 257.785156 187.042969 Z M 252.789062 192.039062 L 252.789062 197.039062 L 257.785156 197.039062 L 257.785156 192.039062 Z M 252.789062 207.03125 L 252.789062 212.03125 L 257.785156 212.03125 L 257.785156 207.03125 Z M 252.789062 212.03125 L 252.789062 217.027344 L 257.785156 217.027344 L 257.785156 212.03125 Z M 252.789062 217.027344 L 252.789062 222.027344 L 257.785156 222.027344 L 257.785156 217.027344 Z M 257.785156 172.050781 L 257.785156 177.046875 L 262.785156 177.046875 L 262.785156 172.050781 Z M 257.785156 177.046875 L 257.785156 182.042969 L 262.785156 182.042969 L 262.785156 177.046875 Z M 257.785156 182.042969 L 257.785156 187.042969 L 262.785156 187.042969 L 262.785156 182.042969 Z M 257.785156 187.042969 L 257.785156 192.039062 L 262.785156 192.039062 L 262.785156 187.042969 Z M 257.785156 192.039062 L 257.785156 197.039062 L 262.785156 197.039062 L 262.785156 192.039062 Z M 257.785156 197.039062 L 257.785156 202.035156 L 262.785156 202.035156 L 262.785156 197.039062 Z M 257.785156 202.035156 L 257.785156 207.03125 L 262.785156 207.03125 L 262.785156 202.035156 Z M 257.785156 207.03125 L 257.785156 212.03125 L 262.785156 212.03125 L 262.785156 207.03125 Z M 257.785156 212.03125 L 257.785156 217.027344 L 262.785156 217.027344 L 262.785156 212.03125 Z M 262.785156 187.042969 L 262.785156 192.039062 L 267.78125 192.039062 L 267.78125 187.042969 Z M 262.785156 192.039062 L 262.785156 197.039062 L 267.78125 197.039062 L 267.78125 192.039062 Z M 262.785156 197.039062 L 262.785156 202.035156 L 267.78125 202.035156 L 267.78125 197.039062 Z M 267.78125 202.035156 L 267.78125 207.03125 L 262.785156 207.03125 L 262.785156 202.035156 L 267.78125 202.035156 " fill-opacity="1" fill-rule="nonzero"/><g clip-path="url(#3f86e56101)"><path fill="#ff66c4" d="M 122.847656 182.042969 L 122.847656 187.042969 L 127.84375 187.042969 L 127.84375 182.042969 Z M 122.847656 187.042969 L 122.847656 192.039062 L 127.84375 192.039062 L 127.84375 187.042969 Z M 122.847656 192.039062 L 122.847656 197.039062 L 127.84375 197.039062 L 127.84375 192.039062 Z M 122.847656 197.039062 L 122.847656 202.035156 L 127.84375 202.035156 L 127.84375 197.039062 Z M 132.84375 172.050781 L 132.84375 167.050781 L 127.84375 167.050781 L 127.84375 172.050781 Z M 132.84375 177.046875 L 132.84375 172.050781 L 127.84375 172.050781 L 127.84375 177.046875 Z M 127.84375 177.046875 L 127.84375 182.042969 L 132.84375 182.042969 L 132.84375 177.046875 Z M 127.84375 202.035156 L 127.84375 207.03125 L 132.84375 207.03125 L 132.84375 202.035156 Z M 127.84375 207.03125 L 127.84375 212.03125 L 132.84375 212.03125 L 132.84375 207.03125 Z M 127.84375 212.03125 L 127.84375 217.027344 L 132.84375 217.027344 L 132.84375 212.03125 Z M 137.839844 157.054688 L 132.84375 157.054688 L 132.84375 162.054688 L 137.839844 162.054688 Z M 137.839844 162.054688 L 132.84375 162.054688 L 132.84375 167.050781 L 137.839844 167.050781 Z M 132.84375 217.027344 L 132.84375 222.027344 L 137.839844 222.027344 L 137.839844 217.027344 Z M 142.839844 152.058594 L 142.839844 147.058594 L 137.839844 147.058594 L 137.839844 152.058594 Z M 142.839844 157.054688 L 142.839844 152.058594 L 137.839844 152.058594 L 137.839844 157.054688 Z M 137.839844 222.027344 L 137.839844 227.023438 L 142.839844 227.023438 L 142.839844 222.027344 Z M 147.835938 142.0625 L 147.835938 137.066406 L 142.839844 137.066406 L 142.839844 142.0625 Z M 147.835938 147.058594 L 147.835938 142.0625 L 142.839844 142.0625 L 142.839844 147.058594 Z M 142.839844 227.023438 L 142.839844 232.019531 L 147.835938 232.019531 L 147.835938 227.023438 Z M 152.835938 132.066406 L 147.835938 132.066406 L 147.835938 137.066406 L 152.835938 137.066406 Z M 147.835938 222.027344 L 147.835938 227.023438 L 152.835938 227.023438 L 152.835938 222.027344 Z M 147.835938 227.023438 L 147.835938 232.019531 L 152.835938 232.019531 L 152.835938 227.023438 Z M 147.835938 232.019531 L 147.835938 237.019531 L 152.835938 237.019531 L 152.835938 232.019531 Z M 157.832031 132.066406 L 157.832031 127.070312 L 152.835938 127.070312 L 152.835938 132.066406 Z M 152.835938 237.019531 L 152.835938 242.015625 L 157.832031 242.015625 L 157.832031 237.019531 Z M 157.832031 132.066406 L 157.832031 137.066406 L 162.828125 137.066406 L 162.828125 132.066406 Z M 157.832031 162.054688 L 157.832031 167.050781 L 162.828125 167.050781 L 162.828125 162.054688 Z M 157.832031 237.019531 L 157.832031 242.015625 L 162.828125 242.015625 L 162.828125 237.019531 Z M 162.828125 137.066406 L 162.828125 142.0625 L 167.828125 142.0625 L 167.828125 137.066406 Z M 162.828125 237.019531 L 162.828125 242.015625 L 167.828125 242.015625 L 167.828125 237.019531 Z M 167.828125 137.066406 L 167.828125 142.0625 L 172.824219 142.0625 L 172.824219 137.066406 Z M 167.828125 172.050781 L 167.828125 177.046875 L 172.824219 177.046875 L 172.824219 172.050781 Z M 167.828125 222.027344 L 167.828125 227.023438 L 172.824219 227.023438 L 172.824219 222.027344 Z M 167.828125 227.023438 L 167.828125 232.019531 L 172.824219 232.019531 L 172.824219 227.023438 Z M 167.828125 232.019531 L 167.828125 237.019531 L 172.824219 237.019531 L 172.824219 232.019531 Z M 172.824219 137.066406 L 172.824219 142.0625 L 177.824219 142.0625 L 177.824219 137.066406 Z M 172.824219 172.050781 L 172.824219 177.046875 L 177.824219 177.046875 L 177.824219 172.050781 Z M 172.824219 177.046875 L 172.824219 182.042969 L 177.824219 182.042969 L 177.824219 177.046875 Z M 172.824219 227.023438 L 172.824219 232.019531 L 177.824219 232.019531 L 177.824219 227.023438 Z M 177.824219 137.066406 L 177.824219 142.0625 L 182.820312 142.0625 L 182.820312 137.066406 Z M 177.824219 172.050781 L 177.824219 177.046875 L 182.820312 177.046875 L 182.820312 172.050781 Z M 177.824219 222.027344 L 177.824219 227.023438 L 182.820312 227.023438 L 182.820312 222.027344 Z M 177.824219 227.023438 L 177.824219 232.019531 L 182.820312 232.019531 L 182.820312 227.023438 Z M 177.824219 232.019531 L 177.824219 237.019531 L 182.820312 237.019531 L 182.820312 232.019531 Z M 182.820312 137.066406 L 182.820312 142.0625 L 187.820312 142.0625 L 187.820312 137.066406 Z M 182.820312 237.019531 L 182.820312 242.015625 L 187.820312 242.015625 L 187.820312 237.019531 Z M 187.820312 132.066406 L 187.820312 137.066406 L 192.816406 137.066406 L 192.816406 132.066406 Z M 187.820312 162.054688 L 187.820312 167.050781 L 192.816406 167.050781 L 192.816406 162.054688 Z M 187.820312 237.019531 L 187.820312 242.015625 L 192.816406 242.015625 L 192.816406 237.019531 Z M 192.816406 127.070312 L 192.816406 132.066406 L 197.8125 132.066406 L 197.8125 127.070312 Z M 192.816406 237.019531 L 192.816406 242.015625 L 197.8125 242.015625 L 197.8125 237.019531 Z M 197.8125 132.066406 L 197.8125 137.066406 L 202.8125 137.066406 L 202.8125 132.066406 Z M 197.8125 222.027344 L 197.8125 227.023438 L 202.8125 227.023438 L 202.8125 222.027344 Z M 197.8125 227.023438 L 197.8125 232.019531 L 202.8125 232.019531 L 202.8125 227.023438 Z M 197.8125 232.019531 L 197.8125 237.019531 L 202.8125 237.019531 L 202.8125 232.019531 Z M 202.8125 137.066406 L 202.8125 142.0625 L 207.808594 142.0625 L 207.808594 137.066406 Z M 202.8125 142.0625 L 202.8125 147.058594 L 207.808594 147.058594 L 207.808594 142.0625 Z M 202.8125 227.023438 L 202.8125 232.019531 L 207.808594 232.019531 L 207.808594 227.023438 Z M 207.808594 147.058594 L 207.808594 152.058594 L 212.808594 152.058594 L 212.808594 147.058594 Z M 207.808594 152.058594 L 207.808594 157.054688 L 212.808594 157.054688 L 212.808594 152.058594 Z M 207.808594 222.027344 L 207.808594 227.023438 L 212.808594 227.023438 L 212.808594 222.027344 Z M 207.808594 227.023438 L 207.808594 232.019531 L 212.808594 232.019531 L 212.808594 227.023438 Z M 212.808594 157.054688 L 212.808594 162.054688 L 217.804688 162.054688 L 217.804688 157.054688 Z M 212.808594 162.054688 L 212.808594 167.050781 L 217.804688 167.050781 L 217.804688 162.054688 Z M 212.808594 217.027344 L 212.808594 222.027344 L 217.804688 222.027344 L 217.804688 217.027344 Z M 212.808594 227.023438 L 212.808594 232.019531 L 217.804688 232.019531 L 217.804688 227.023438 Z M 217.804688 167.050781 L 217.804688 172.050781 L 222.800781 172.050781 L 222.800781 167.050781 Z M 217.804688 172.050781 L 217.804688 177.046875 L 222.800781 177.046875 L 222.800781 172.050781 Z M 217.804688 177.046875 L 217.804688 182.042969 L 222.800781 182.042969 L 222.800781 177.046875 Z M 217.804688 202.035156 L 217.804688 207.03125 L 222.800781 207.03125 L 222.800781 202.035156 Z M 217.804688 207.03125 L 217.804688 212.03125 L 222.800781 212.03125 L 222.800781 207.03125 Z M 217.804688 212.03125 L 217.804688 217.027344 L 222.800781 217.027344 L 222.800781 212.03125 Z M 217.804688 227.023438 L 217.804688 232.019531 L 222.800781 232.019531 L 222.800781 227.023438 Z M 222.800781 182.042969 L 222.800781 187.042969 L 227.800781 187.042969 L 227.800781 182.042969 Z M 222.800781 187.042969 L 222.800781 192.039062 L 227.800781 192.039062 L 227.800781 187.042969 Z M 222.800781 192.039062 L 222.800781 197.039062 L 227.800781 197.039062 L 227.800781 192.039062 Z M 222.800781 197.039062 L 222.800781 202.035156 L 227.800781 202.035156 L 227.800781 197.039062 Z M 222.800781 217.027344 L 222.800781 222.027344 L 227.800781 222.027344 L 227.800781 217.027344 Z M 222.800781 227.023438 L 222.800781 232.019531 L 227.800781 232.019531 L 227.800781 227.023438 Z M 227.800781 217.027344 L 227.800781 222.027344 L 232.796875 222.027344 L 232.796875 217.027344 Z M 227.800781 227.023438 L 227.800781 232.019531 L 232.796875 232.019531 L 232.796875 227.023438 Z M 232.796875 172.050781 L 232.796875 177.046875 L 237.796875 177.046875 L 237.796875 172.050781 Z M 232.796875 177.046875 L 232.796875 182.042969 L 237.796875 182.042969 L 237.796875 177.046875 Z M 232.796875 182.042969 L 232.796875 187.042969 L 237.796875 187.042969 L 237.796875 182.042969 Z M 232.796875 217.027344 L 232.796875 222.027344 L 237.796875 222.027344 L 237.796875 217.027344 Z M 232.796875 227.023438 L 232.796875 232.019531 L 237.796875 232.019531 L 237.796875 227.023438 Z M 237.796875 167.050781 L 237.796875 172.050781 L 242.792969 172.050781 L 242.792969 167.050781 Z M 237.796875 187.042969 L 237.796875 192.039062 L 242.792969 192.039062 L 242.792969 187.042969 Z M 237.796875 217.027344 L 237.796875 222.027344 L 242.792969 222.027344 L 242.792969 217.027344 Z M 237.796875 227.023438 L 237.796875 232.019531 L 242.792969 232.019531 L 242.792969 227.023438 Z M 242.792969 162.054688 L 242.792969 167.050781 L 247.789062 167.050781 L 247.789062 162.054688 Z M 242.792969 192.039062 L 242.792969 197.039062 L 247.789062 197.039062 L 247.789062 192.039062 Z M 242.792969 212.03125 L 242.792969 217.027344 L 247.789062 217.027344 L 247.789062 212.03125 Z M 242.792969 227.023438 L 242.792969 232.019531 L 247.789062 232.019531 L 247.789062 227.023438 Z M 247.789062 162.054688 L 247.789062 167.050781 L 252.789062 167.050781 L 252.789062 162.054688 Z M 247.789062 192.039062 L 247.789062 197.039062 L 252.789062 197.039062 L 252.789062 192.039062 Z M 247.789062 207.03125 L 247.789062 212.03125 L 252.789062 212.03125 L 252.789062 207.03125 Z M 247.789062 222.027344 L 247.789062 227.023438 L 252.789062 227.023438 L 252.789062 222.027344 Z M 252.789062 162.054688 L 252.789062 167.050781 L 257.785156 167.050781 L 257.785156 162.054688 Z M 252.789062 197.039062 L 252.789062 202.035156 L 257.785156 202.035156 L 257.785156 197.039062 Z M 252.789062 202.035156 L 252.789062 207.03125 L 257.785156 207.03125 L 257.785156 202.035156 Z M 252.789062 222.027344 L 252.789062 227.023438 L 257.785156 227.023438 L 257.785156 222.027344 Z M 257.785156 167.050781 L 257.785156 172.050781 L 262.785156 172.050781 L 262.785156 167.050781 Z M 257.785156 217.027344 L 257.785156 222.027344 L 262.785156 222.027344 L 262.785156 217.027344 Z M 262.785156 172.050781 L 262.785156 177.046875 L 267.78125 177.046875 L 267.78125 172.050781 Z M 262.785156 177.046875 L 262.785156 182.042969 L 267.78125 182.042969 L 267.78125 177.046875 Z M 262.785156 182.042969 L 262.785156 187.042969 L 267.78125 187.042969 L 267.78125 182.042969 Z M 262.785156 207.03125 L 262.785156 212.03125 L 267.78125 212.03125 L 267.78125 207.03125 Z M 262.785156 212.03125 L 262.785156 217.027344 L 267.78125 217.027344 L 267.78125 212.03125 Z M 267.78125 187.042969 L 267.78125 192.039062 L 272.78125 192.039062 L 272.78125 187.042969 Z M 267.78125 192.039062 L 267.78125 197.039062 L 272.78125 197.039062 L 272.78125 192.039062 Z M 267.78125 197.039062 L 267.78125 202.035156 L 272.78125 202.035156 L 272.78125 197.039062 Z M 272.78125 202.035156 L 272.78125 207.03125 L 267.78125 207.03125 L 267.78125 202.035156 L 272.78125 202.035156 " fill-opacity="1" fill-rule="nonzero"/></g></svg>